<?xml version="1.0" encoding="utf-8"?>
<!-- Generator: Adobe Illustrator 18.1.1, SVG Export Plug-In . SVG Version: 6.00 Build 0)  -->
<!DOCTYPE svg PUBLIC "-//W3C//DTD SVG 1.1//EN" "http://www.w3.org/Graphics/SVG/1.1/DTD/svg11.dtd">
<svg version="1.1" id="Layer_1" xmlns="http://www.w3.org/2000/svg" xmlns:xlink="http://www.w3.org/1999/xlink" x="0px" y="0px"
	 width="250px" height="250px" viewBox="-354 156 250 250" enable-background="new -354 156 250 250" xml:space="preserve">
<g id="oomp-logo">
	<g id="OO">
		<circle id="oLeft" fill="#353833" cx="-280.4" cy="246.3" r="59.8"/>
		<circle id="oRight" fill="#353833" cx="-177.2" cy="246.3" r="59.8"/>
		<g id="oLeftHighlight">
			<path fill="#4D4D4D" d="M-335.4,244.3c0,0-0.1-1.3-0.1-3.6c0-0.6,0-1.2,0-1.9c0.1-0.7,0.1-1.4,0.2-2.2c0.1-0.8,0.2-1.7,0.2-2.6
				c0-0.5,0.1-0.9,0.2-1.4s0.2-0.9,0.3-1.4c0.2-1,0.4-2,0.6-3c0.3-1,0.7-2.1,1-3.2c0.2-0.5,0.4-1.1,0.5-1.7c0.2-0.5,0.5-1.1,0.7-1.6
				c0.5-1.1,1-2.2,1.5-3.4c1.3-2.1,2.4-4.5,4.1-6.5c1.5-2.2,3.3-4.1,5.1-6.1c2-1.8,3.9-3.6,6.1-5.1c0.5-0.4,1.1-0.8,1.6-1.2
				c0.5-0.4,1.1-0.7,1.7-1c1.1-0.6,2.2-1.3,3.3-1.9c1.1-0.5,2.2-1,3.4-1.5c0.6-0.2,1.1-0.5,1.6-0.7c0.6-0.2,1.1-0.4,1.7-0.5
				c1.1-0.4,2.1-0.7,3.2-1c1-0.2,2.1-0.4,3-0.6c1-0.2,1.9-0.5,2.8-0.5c0.9-0.1,1.8-0.2,2.6-0.2c0.8-0.1,1.5-0.1,2.2-0.2
				c0.7,0,1.3,0,1.9,0c2.3,0.1,3.6,0.1,3.6,0.1s-1.3,0.2-3.6,0.5c-0.6,0.1-1.2,0.1-1.9,0.2c-0.7,0.1-1.4,0.3-2.2,0.5
				c-0.8,0.2-1.6,0.3-2.4,0.5c-0.9,0.2-1.7,0.5-2.7,0.8c-0.9,0.3-1.9,0.6-2.9,0.9c-1,0.4-1.9,0.8-3,1.2c-0.5,0.2-1,0.4-1.5,0.6
				c-0.5,0.2-1,0.5-1.5,0.8c-1,0.5-2.1,1.1-3.1,1.6c-2,1.3-4.1,2.5-6.1,4.1c-2.1,1.4-3.8,3.2-5.7,4.9c-1.7,1.9-3.5,3.7-4.9,5.7
				c-1.6,1.9-2.8,4.1-4.1,6.1c-0.5,1.1-1.1,2.1-1.6,3.1c-0.3,0.5-0.5,1-0.8,1.5c-0.2,0.5-0.4,1-0.6,1.5c-0.4,1-0.8,2-1.2,3
				c-0.3,1-0.6,1.9-0.9,2.9c-0.3,0.9-0.6,1.8-0.8,2.6c-0.2,0.9-0.4,1.7-0.5,2.4c-0.2,0.8-0.3,1.5-0.5,2.2c-0.1,0.7-0.2,1.3-0.2,1.9
				C-335.2,243-335.4,244.3-335.4,244.3z"/>
		</g>
		<g id="oRightHighLight">
			<path fill="#4D4D4D" d="M-227.9,220.9c0,0,0.3-0.9,0.9-2.4c0.2-0.4,0.3-0.8,0.5-1.3s0.5-0.9,0.7-1.5c0.3-0.5,0.6-1.1,0.9-1.7
				c0.3-0.6,0.7-1.1,1.1-1.8c0.4-0.6,0.8-1.3,1.2-1.9c0.5-0.6,1-1.3,1.5-1.9c0.5-0.7,1.1-1.3,1.6-2c0.6-0.7,1.2-1.3,1.8-2
				c1.3-1.3,2.6-2.6,4.2-3.8l1.1-0.9l1.2-0.8c0.8-0.5,1.6-1.1,2.4-1.7c0.8-0.5,1.7-1,2.5-1.5s1.7-0.9,2.6-1.3
				c0.4-0.2,0.9-0.4,1.3-0.6c0.4-0.2,0.9-0.3,1.3-0.5c0.9-0.3,1.7-0.7,2.6-1c1.7-0.5,3.4-1.1,5.1-1.4c0.8-0.2,1.6-0.4,2.4-0.5
				c0.8-0.1,1.5-0.2,2.2-0.3c1.4-0.2,2.8-0.2,3.9-0.3c0.6,0,1.1,0,1.6,0s1,0.1,1.4,0.1c1.7,0.1,2.6,0.2,2.6,0.2s-0.9,0.2-2.6,0.4
				c-0.4,0.1-0.9,0.1-1.4,0.2c-0.5,0.1-1,0.2-1.6,0.3c-1.1,0.2-2.4,0.4-3.7,0.8c-0.7,0.2-1.4,0.3-2.1,0.5c-0.7,0.2-1.5,0.5-2.2,0.7
				c-1.5,0.4-3.1,1.1-4.7,1.7c-0.8,0.3-1.6,0.7-2.4,1.1c-0.4,0.2-0.8,0.4-1.2,0.6c-0.4,0.2-0.8,0.4-1.2,0.6
				c-0.8,0.4-1.6,0.8-2.4,1.3c-0.8,0.5-1.6,1-2.4,1.4c-0.8,0.5-1.5,1-2.3,1.5l-1.1,0.8l-1.1,0.8c-0.7,0.6-1.5,1.1-2.1,1.7
				c-0.7,0.6-1.3,1.2-2,1.7c-0.7,0.6-1.2,1.2-1.8,1.8c-0.6,0.6-1.2,1.1-1.7,1.7c-1.1,1.2-2.1,2.3-3,3.4c-0.4,0.5-0.9,1.1-1.3,1.6
				c-0.4,0.5-0.7,1-1.1,1.5c-0.7,0.9-1.3,1.7-1.7,2.4C-227.3,220.2-227.9,220.9-227.9,220.9z"/>
		</g>
		<path id="oTopShade" fill="#181A17" d="M-228.3,215.2c0,0.3-0.2,0.5-0.5,0.5s-0.5-0.2-0.5-0.5l0.5,1.9L-228.3,215.2z"/>
		<path id="oBottomSahde" fill="#181A17" d="M-229.3,277.4c0-0.3,0.2-0.5,0.5-0.5s0.5,0.2,0.5,0.5l-0.5-1.9L-229.3,277.4z"/>
		<path id="oMiddleHighLight" fill="#4D4D4D" d="M-230.4,240.4c0,0.8-0.8,1.8-1.6,1.8c-0.8,0-1.1-1-1.1-1.8c0-0.8,0.8-3,1.5-2.5
			C-230.7,238.5-230.4,239.5-230.4,240.4z"/>
	</g>
	<g id="MP">
		<g id="mpGroup_1_">
			
				<path fill="none" stroke="#4D4D4D" stroke-width="0.3639" stroke-linecap="round" stroke-linejoin="round" stroke-miterlimit="10" d="
				M-200.3,325.6c0.7,1.2,1.1,2.6,1.1,4.2c0,4-2.4,6.7-5.7,7.7"/>
			
				<path fill="none" stroke="#262626" stroke-width="0.3639" stroke-linecap="round" stroke-linejoin="round" stroke-miterlimit="10" d="
				M-200.2,323.5c1.4,1.6,2.3,3.8,2.3,6.2c0,5.1-3.8,9.3-8.5,9.3"/>
			
				<path fill="none" stroke="#353833" stroke-width="2.1314" stroke-linecap="round" stroke-linejoin="round" stroke-miterlimit="10" d="
				M-257.6,347.7v-18c0-4.7,3.8-8.5,8.5-8.5c4.7,0,8.5,3.8,8.5,8.5l0,0c0,0.7,0.5,1.2,1.2,1.2c0.7,0,1.2-0.5,1.2-1.2l0,0
				c0-4.7,3.8-8.5,8.5-8.5c4.7,0,8.5,3.8,8.5,8.5v18.1l-7,10.9c-0.3,0.4-0.5,0.9-0.5,1.4c0,1.2,1,2.2,2.2,2.2c0.7,0,1.3-0.4,1.7-0.8
				c0.4-0.5,1.6-2.4,1.6-2.4l0,0l0,0l7.3-11.3v-18.1c0-4.7,3.8-8.5,8.5-8.5s8.5,3.5,8.5,8.5c0,5.1-3.8,8.7-8.5,8.7h-0.6
				c-0.6,0-1.1,0.5-1.1,1.1c0,0.6,0.5,1.1,1.1,1.1"/>
			
				<path fill="none" stroke="#262626" stroke-width="0.3639" stroke-linecap="round" stroke-linejoin="round" stroke-miterlimit="10" d="
				M-222.7,323.9c1.4,1.5,2.3,3.6,2.3,5.8v18.1l-7.4,11.5c-0.2,0.2-0.3,0.6-0.3,0.9c0,0.4,0.1,0.7,0.3,0.9"/>
			
				<path fill="none" stroke="#262626" stroke-width="0.3639" stroke-linecap="round" stroke-linejoin="round" stroke-miterlimit="10" d="
				M-223.5,324.3c-1.5-1.6-3.6-2.6-5.9-2.6c-4.4,0-8,3.6-8,8"/>
			
				<path fill="none" stroke="#262626" stroke-width="0.3639" stroke-linecap="round" stroke-linejoin="round" stroke-miterlimit="10" d="
				M-239.9,331.3c-0.8,0-1.2-1.1-1.2-2.1l0,0"/>
			
				<path fill="none" stroke="#353833" stroke-width="2.1314" stroke-linecap="round" stroke-linejoin="round" stroke-miterlimit="10" d="
				M-259.7,347.7c0,0.6,0.5,1.1,1.1,1.1s1.1-0.5,1.1-1.1"/>
			
				<path fill="none" stroke="#262626" stroke-width="0.3639" stroke-linecap="round" stroke-linejoin="round" stroke-miterlimit="10" d="
				M-258.2,349.3c0.8,0,1.4-0.8,1.4-1.5"/>
			
				<polyline fill="none" stroke="#4D4D4D" stroke-width="0.3639" stroke-linecap="round" stroke-linejoin="round" stroke-miterlimit="10" points="
				-227.8,357.7 -221.4,347.8 -221.4,329.7 			"/>
			
				<line fill="none" stroke="#666666" stroke-width="0.3639" stroke-linecap="round" stroke-linejoin="round" stroke-miterlimit="10" x1="-221.4" y1="343.7" x2="-221.4" y2="333.2"/>
			
				<path fill="none" stroke="#4D4D4D" stroke-width="0.3639" stroke-linecap="round" stroke-linejoin="round" stroke-miterlimit="10" d="
				M-229.8,320.7c-4.7,0-8.5,3.8-8.5,8.5l0,0"/>
			
				<path fill="none" stroke="#666666" stroke-width="0.3639" stroke-linecap="round" stroke-linejoin="round" stroke-miterlimit="10" d="
				M-232.8,321.2c-1.9,0.6-3.5,2.3-4.6,4.1"/>
			
				<path fill="none" stroke="#262626" stroke-width="0.3639" stroke-linecap="round" stroke-linejoin="round" stroke-miterlimit="10" d="
				M-207.2,321.6c-4.4,0-7.8,3.6-7.8,8v18.2l-8.8,13.9c-0.5,0.5-1.3,1-2.2,1c-0.2,0-0.4,0-0.6-0.1"/>
			
				<path fill="none" stroke="#4D4D4D" stroke-width="0.3639" stroke-linecap="round" stroke-linejoin="round" stroke-miterlimit="10" d="
				M-207.4,320.7c-4.4,0-8.5,4.1-8.5,8.5v18.6l-8.8,13.1"/>
			
				<path fill="none" stroke="#666666" stroke-width="0.3639" stroke-linecap="round" stroke-linejoin="round" stroke-miterlimit="10" d="
				M-211.3,321.7c-2.7,1.5-4.6,4.4-4.6,7.5v16.6"/>
			
				<path fill="none" stroke="#262626" stroke-width="0.3639" stroke-linecap="round" stroke-linejoin="round" stroke-miterlimit="10" d="
				M-257.3,347.7"/>
			
				<path fill="none" stroke="#262626" stroke-width="0.3639" stroke-linecap="round" stroke-linejoin="round" stroke-miterlimit="10" d="
				M-241.1,329.1c0-4-3.5-7.3-7.9-7.3s-7.9,3.3-7.9,7.3"/>
			
				<line fill="none" stroke="#262626" stroke-width="0.3639" stroke-linecap="round" stroke-linejoin="round" stroke-miterlimit="10" x1="-256.9" y1="329.1" x2="-256.9" y2="347.7"/>
			
				<path fill="none" stroke="#4D4D4D" stroke-width="0.3639" stroke-linecap="round" stroke-linejoin="round" stroke-miterlimit="10" d="
				M-249.3,321c-4.7,0-8.5,3.8-8.5,8.5v18"/>
			
				<path fill="none" stroke="#666666" stroke-width="0.3639" stroke-linecap="round" stroke-linejoin="round" stroke-miterlimit="10" d="
				M-252.4,321.6c-2.8,1.1-4.9,3.6-5.3,6.6"/>
			<circle fill="#666666" cx="-259.8" cy="347.1" r="0.2"/>
			<circle fill="#666666" cx="-238.7" cy="330.4" r="0.2"/>
			<circle fill="#666666" cx="-209" cy="338.4" r="0.2"/>
			<circle fill="#666666" cx="-225.5" cy="361.4" r="0.2"/>
		</g>
	</g>
</g>
</svg>
