<?xml version="1.0" encoding="utf-8"?>
<!-- Generator: Adobe Illustrator 18.1.1, SVG Export Plug-In . SVG Version: 6.00 Build 0)  -->
<!DOCTYPE svg PUBLIC "-//W3C//DTD SVG 1.1//EN" "http://www.w3.org/Graphics/SVG/1.1/DTD/svg11.dtd">
<svg version="1.1" xmlns="http://www.w3.org/2000/svg" xmlns:xlink="http://www.w3.org/1999/xlink" x="0px" y="0px"
	 viewBox="0 0 1065 62" enable-background="new 0 0 1065 62" xml:space="preserve">
<g id="background">
</g>
<g id="LOGO">
</g>
<g id="Layer_6">
</g>
<g id="Layer_8">
</g>
<g id="Layer_5">
</g>
<g id="Layer_4">
</g>
<g id="Layer_1">
</g>
<g id="CONTENT">
</g>
<g id="icons">
	<g>
		<circle fill="#E6DCDC" cx="76.03" cy="32.153" r="16.5"/>
	</g>
	<g>
		<circle fill="#E6DCDC" cx="208.414" cy="32.153" r="16.5"/>
	</g>
	<g>
		<circle fill="#E6DCDC" cx="341.196" cy="32.153" r="16.5"/>
	</g>
	<g>
		<circle fill="#E6DCDC" cx="473.463" cy="32.153" r="16.5"/>
	</g>
	<g>
		<circle fill="#E6DCDC" cx="605.747" cy="32.153" r="16.5"/>
	</g>
	<g>
		<circle fill="#E6DCDC" cx="1003.286" cy="32.153" r="16.5"/>
	</g>
	<g>
		<circle fill="#E6DCDC" cx="870.707" cy="32.153" r="16.5"/>
	</g>
	<g>
		<circle fill="#E6DCDC" cx="738.477" cy="32.153" r="16.5"/>
	</g>
	<g>
		<circle fill="#E6DCDC" cx="738.707" cy="31.153" r="16.5"/>
	</g>
	<g>
		<circle fill="#B8A5A5" cx="1003.707" cy="33.153" r="16"/>
	</g>
	<g>
		<circle fill="#B8A5A5" cx="871.707" cy="32.153" r="16"/>
	</g>
	<g>
		<path fill="#FFFFFF" d="M208.407,47.403c-8.409,0-15.25-6.841-15.25-15.25s6.841-15.25,15.25-15.25s15.25,6.841,15.25,15.25
			S216.817,47.403,208.407,47.403z"/>
		<g>
			<path fill="#D4C978" d="M208.408,17.153c8.284,0,14.999,6.717,14.999,15c0,8.284-6.715,14.999-14.999,14.999
				s-15.001-6.715-15.001-14.999C193.407,23.87,200.124,17.153,208.408,17.153 M208.408,16.653c-8.547,0-15.501,6.953-15.501,15.5
				c0,8.546,6.953,15.499,15.501,15.499c8.546,0,15.499-6.953,15.499-15.499C223.907,23.606,216.954,16.653,208.408,16.653
				L208.408,16.653z"/>
		</g>
	</g>
	<g>
		<path fill="#D4C978" d="M215.965,29.129c0.007,0.162,0.01,0.325,0.01,0.489c0,4.996-3.802,10.756-10.755,10.756
			c-2.135,0-4.122-0.626-5.795-1.698c0.296,0.034,0.597,0.052,0.902,0.052c1.771,0,3.401-0.604,4.695-1.618
			c-1.654-0.031-3.05-1.124-3.531-2.625c0.23,0.045,0.467,0.068,0.711,0.068c0.345,0,0.679-0.046,0.996-0.133
			c-1.73-0.347-3.033-1.876-3.033-3.706c0-0.017,0-0.032,0.001-0.048c0.51,0.283,1.092,0.453,1.712,0.473
			c-1.015-0.679-1.682-1.835-1.682-3.147c0-0.693,0.186-1.343,0.512-1.901c1.864,2.287,4.65,3.792,7.792,3.949
			c-0.064-0.277-0.098-0.565-0.098-0.861c0-2.087,1.693-3.78,3.78-3.78c1.087,0,2.07,0.459,2.759,1.193
			c0.862-0.169,1.67-0.484,2.401-0.917c-0.283,0.883-0.882,1.624-1.663,2.092c0.765-0.092,1.494-0.295,2.172-0.596
			C217.345,27.93,216.703,28.596,215.965,29.129z"/>
	</g>
	<g>
		<path fill="#FFFFFF" d="M75.947,47.402c-8.409,0-15.25-6.841-15.25-15.249c0-8.409,6.841-15.25,15.25-15.25
			s15.25,6.841,15.25,15.25C91.197,40.561,84.357,47.402,75.947,47.402z"/>
		<g>
			<path fill="#D4C978" d="M75.947,17.153c8.284,0,15,6.717,15,15c0,8.284-6.716,14.999-15,14.999s-15-6.715-15-14.999
				C60.947,23.871,67.663,17.153,75.947,17.153 M75.947,16.653c-8.547,0-15.5,6.953-15.5,15.5c0,8.546,6.953,15.499,15.5,15.499
				s15.5-6.953,15.5-15.499C91.447,23.607,84.494,16.653,75.947,16.653L75.947,16.653z"/>
		</g>
	</g>
	<g>
		<path fill="#D4C978" d="M79.918,32.09h-2.597c0,4.151,0,9.263,0,9.263h-3.85c0,0,0-5.06,0-9.263h-1.83V28.82h1.83v-2.119
			c0-1.517,0.72-3.884,3.886-3.884l2.851,0.011v3.177c0,0-1.733,0-2.07,0c-0.337,0-0.816,0.169-0.816,0.89v1.926h2.934L79.918,32.09
			z"/>
	</g>
	<g>
		<path fill="#FFFFFF" d="M473.327,47.403c-8.409,0-15.25-6.841-15.25-15.25s6.841-15.251,15.25-15.251s15.25,6.842,15.25,15.251
			S481.737,47.403,473.327,47.403z"/>
		<path fill="#D4C978" d="M473.328,17.153c8.284,0,15,6.716,15,15c0,8.285-6.716,15-15,15c-8.284,0-15-6.715-15-15
			C458.327,23.869,465.044,17.153,473.328,17.153 M473.328,16.653c-8.547,0-15.5,6.953-15.5,15.5s6.953,15.5,15.5,15.5
			c8.547,0,15.5-6.953,15.5-15.5S481.874,16.653,473.328,16.653L473.328,16.653z"/>
	</g>
	<g>
		<path fill="#D4C978" d="M481.682,39.439c0,0.668-0.554,1.208-1.237,1.208h-14.264c-0.684,0-1.237-0.54-1.237-1.208v-14.43
			c0-0.666,0.553-1.208,1.237-1.208h14.264c0.684,0,1.237,0.541,1.237,1.208V39.439z"/>
	</g>
	<g>
		<path fill="#FFFFFF" d="M476.223,30.118c-1.341,0-1.942,0.736-2.279,1.255v0.025h-0.017c0.006-0.007,0.012-0.017,0.017-0.025
			v-1.077h-2.528c0.033,0.713,0,7.605,0,7.605h2.528v-4.247c0-0.228,0.017-0.453,0.083-0.616c0.183-0.453,0.6-0.926,1.297-0.926
			c0.915,0,1.281,0.698,1.281,1.72v4.069h2.528v-4.36C479.134,31.205,477.886,30.118,476.223,30.118z"/>
	</g>
	<g>
		<path fill="#FFFFFF" d="M468.77,26.629c-0.864,0-1.43,0.569-1.43,1.315c0,0.729,0.548,1.315,1.397,1.315h0.017
			c0.882,0,1.431-0.585,1.431-1.315C470.167,27.198,469.635,26.629,468.77,26.629z"/>
	</g>
	<g>
		<rect x="467.489" y="30.297" fill="#FFFFFF" width="2.529" height="7.605"/>
	</g>
	<g>
		<path fill="#FFFFFF" d="M340.867,47.402c-8.409,0-15.25-6.841-15.25-15.25c0-8.408,6.841-15.249,15.25-15.249
			s15.25,6.841,15.25,15.249C356.117,40.561,349.277,47.402,340.867,47.402z"/>
		<path fill="#D4C978" d="M340.868,17.153c8.284,0,15,6.715,15,14.999s-6.716,15-15,15c-8.284,0-15-6.716-15-15
			S332.583,17.153,340.868,17.153 M340.868,16.653c-8.547,0-15.5,6.953-15.5,15.499c0,8.547,6.953,15.5,15.5,15.5
			c8.547,0,15.5-6.953,15.5-15.5C356.367,23.606,349.414,16.653,340.868,16.653L340.868,16.653z"/>
	</g>
	<g>
		<path fill="#D4C978" d="M339.503,40.314c-0.598,0.173-1.243,0.261-1.922,0.261c-0.754,0-1.48-0.087-2.156-0.258
			c-1.31-0.33-2.279-0.957-2.73-1.764c-0.195-0.349-0.294-0.721-0.294-1.106c0-0.397,0.096-0.799,0.283-1.197
			c0.718-1.529,2.609-2.557,4.704-2.557c0.021,0,0.041,0,0.061-0.001c-0.171-0.299-0.253-0.61-0.253-0.936
			c0-0.164,0.021-0.329,0.064-0.497c-2.198-0.051-3.842-1.66-3.842-3.781c0-1.498,1.197-2.957,2.909-3.548
			c0.513-0.177,1.036-0.267,1.55-0.267h4.698c0.16,0,0.301,0.104,0.351,0.256c0.051,0.153-0.005,0.319-0.135,0.413l-1.05,0.76
			c-0.063,0.046-0.139,0.07-0.218,0.07h-0.376c0.486,0.582,0.771,1.411,0.771,2.344c0,1.03-0.521,2.003-1.468,2.745
			c-0.732,0.57-0.762,0.726-0.762,1.053c0.009,0.179,0.52,0.763,1.082,1.16c1.311,0.927,1.798,1.836,1.798,3.354
			C342.569,38.402,341.366,39.773,339.503,40.314z"/>
	</g>
	<g>
		<path fill="#D4C978" d="M350.116,32.254c0,0.204-0.167,0.369-0.37,0.369h-2.67v2.671c0,0.204-0.165,0.369-0.37,0.369h-0.76
			c-0.205,0-0.37-0.165-0.37-0.369v-2.671h-2.671c-0.203,0-0.369-0.165-0.369-0.369v-0.761c0-0.203,0.166-0.37,0.369-0.37h2.671
			v-2.67c0-0.205,0.165-0.37,0.37-0.37h0.76c0.204,0,0.37,0.165,0.37,0.37v2.67h2.67c0.203,0,0.37,0.167,0.37,0.37V32.254z"/>
	</g>
	<g>
		<path fill="#FFFFFF" d="M338.075,31.043c0.383,0,0.706-0.151,0.956-0.437c0.393-0.447,0.566-1.18,0.463-1.959
			c-0.183-1.393-1.177-2.549-2.215-2.58l-0.042-0.001c-0.368,0-0.695,0.151-0.945,0.436c-0.387,0.441-0.55,1.14-0.448,1.917
			c0.182,1.391,1.196,2.592,2.214,2.623H338.075z"/>
	</g>
	<g>
		<path fill="#FFFFFF" d="M339.208,35.238c-0.102-0.069-0.208-0.142-0.317-0.216c-0.321-0.098-0.66-0.15-1.008-0.154h-0.043
			c-1.599,0-3.002,0.969-3.002,2.074c0,1.201,1.201,2.143,2.736,2.143c2.024,0,3.049-0.697,3.049-2.074
			c0-0.13-0.016-0.265-0.047-0.399C340.438,36.076,339.949,35.743,339.208,35.238z"/>
	</g>
	<g>
		<path fill="#FFFFFF" d="M1003.168,47.403c-8.409,0-15.251-6.841-15.251-15.25s6.842-15.251,15.251-15.251
			c8.408,0,15.249,6.842,15.249,15.251S1011.576,47.403,1003.168,47.403z"/>
		<path fill="#D4C978" d="M1003.168,17.152c8.284,0,15,6.716,15,15.001c0,8.285-6.715,15-15,15c-8.284,0-15-6.715-15-15
			C988.168,23.869,994.884,17.152,1003.168,17.152 M1003.168,16.652c-8.547,0-15.5,6.954-15.5,15.501c0,8.547,6.953,15.5,15.5,15.5
			c8.546,0,15.5-6.954,15.5-15.5C1018.668,23.606,1011.715,16.652,1003.168,16.652L1003.168,16.652z"/>
	</g>
	<g>
		<path fill="#D4C978" d="M1002.392,40.599c-1.246,0-2.314-1.06-2.82-2.109c-0.303-0.626-0.86-2.447-1.449-4.376
			c-0.593-1.938-1.33-4.35-1.566-4.629c-0.027-0.033-0.08-0.077-0.21-0.077c-0.454,0-1.198,0.508-1.446,0.704
			c-0.045,0.035-0.1,0.054-0.155,0.054c-0.011,0-0.021-0.001-0.031-0.002c-0.066-0.009-0.127-0.043-0.168-0.097l-0.728-0.956
			c-0.07-0.093-0.067-0.223,0.008-0.312c0.127-0.151,3.133-3.714,5.514-4.183c0.146-0.029,0.285-0.042,0.416-0.042
			c1.821,0,2.23,2.462,2.592,4.634c0.104,0.632,0.204,1.229,0.331,1.737c0.276,1.105,0.852,3.407,1.214,3.407
			c0.252,0,1.067-0.825,2.282-3.1c0.418-0.779,0.493-1.57,0.197-2.065c-0.172-0.285-0.451-0.437-0.81-0.437
			c-0.33,0-0.722,0.13-1.132,0.377c-0.04,0.023-0.084,0.035-0.129,0.035c-0.049,0-0.099-0.015-0.141-0.043
			c-0.081-0.056-0.122-0.152-0.106-0.248c0.462-2.766,2.978-4.419,5.143-4.419c0.975,0,1.803,0.349,2.332,0.979
			c0.604,0.721,0.803,1.782,0.574,3.069c-1.037,5.852-6.884,10.703-8.393,11.683C1003.285,40.46,1002.842,40.599,1002.392,40.599z"
			/>
		<path fill="#FFFFFF" d="M1009.197,24.704c1.722,0,3.122,1.15,2.66,3.755c-1.002,5.646-6.6,10.425-8.283,11.517
			c-0.406,0.263-0.804,0.374-1.182,0.374c-1.187,0-2.173-1.092-2.595-1.968c-0.638-1.318-2.55-8.465-3.05-9.058
			c-0.1-0.118-0.24-0.166-0.401-0.166c-0.641,0-1.602,0.759-1.602,0.759l-0.728-0.957c0,0,3.049-3.641,5.37-4.098
			c0.129-0.025,0.252-0.037,0.368-0.037c2.093,0,2.119,3.941,2.68,6.183c0.573,2.289,0.957,3.597,1.456,3.597
			c0.501,0,1.457-1.274,2.503-3.231c0.804-1.502,0.348-2.87-0.833-2.87c-0.359,0-0.784,0.126-1.261,0.412
			C1004.742,26.268,1007.189,24.704,1009.197,24.704 M1009.198,24.204L1009.198,24.204c-2.27,0-4.907,1.731-5.39,4.628
			c-0.032,0.192,0.051,0.386,0.212,0.496c0.085,0.058,0.183,0.087,0.281,0.087c0.089,0,0.178-0.024,0.257-0.071
			c0.372-0.223,0.719-0.341,1.003-0.341c0.27,0,0.47,0.106,0.595,0.315c0.248,0.413,0.168,1.128-0.202,1.819
			c-1.084,2.028-1.766,2.757-2.024,2.931c-0.319-0.418-0.781-2.265-1.01-3.182c-0.125-0.498-0.223-1.09-0.327-1.717
			c-0.377-2.271-0.804-4.845-2.838-4.845c-0.149,0-0.305,0.016-0.464,0.047c-2.466,0.486-5.528,4.113-5.657,4.267
			c-0.15,0.179-0.156,0.438-0.015,0.624l0.728,0.957c0.081,0.107,0.202,0.176,0.335,0.193c0.021,0.003,0.042,0.004,0.063,0.004
			c0.112,0,0.221-0.037,0.309-0.107c0.334-0.263,0.976-0.651,1.292-0.651c0.247,0.312,0.993,2.751,1.538,4.533
			c0.592,1.936,1.151,3.765,1.463,4.409c0.539,1.12,1.69,2.25,3.045,2.25c0.499,0,0.988-0.153,1.454-0.454
			c1.529-0.992,7.45-5.908,8.504-11.85c0.306-1.721-0.173-2.73-0.628-3.273C1011.143,24.584,1010.247,24.204,1009.198,24.204
			L1009.198,24.204z"/>
	</g>
	<g>
		<path fill="#FFFFFF" d="M870.707,47.403c-8.409,0-15.25-6.841-15.25-15.25s6.841-15.25,15.25-15.25s15.25,6.841,15.25,15.25
			S879.116,47.403,870.707,47.403z"/>
		<path fill="#D4C978" d="M870.707,17.153c8.284,0,15,6.716,15,15c0,8.285-6.716,15-15,15c-8.284,0-15-6.715-15-15
			C855.707,23.869,862.424,17.153,870.707,17.153 M870.707,16.653c-8.547,0-15.5,6.953-15.5,15.5s6.953,15.5,15.5,15.5
			s15.5-6.953,15.5-15.5S879.254,16.653,870.707,16.653L870.707,16.653z"/>
	</g>
	<g>
		<path fill="#D4C978" d="M869.238,25.734c0-0.396,0.141-0.713,0.423-0.951c0.283-0.233,0.662-0.352,1.138-0.352
			c0.434,0,0.789,0.125,1.068,0.372c0.275,0.247,0.414,0.569,0.414,0.961v2.649c0,0.44-0.136,0.784-0.406,1.033
			c-0.273,0.249-0.647,0.374-1.123,0.374c-0.458,0-0.826-0.128-1.101-0.384c-0.275-0.259-0.413-0.607-0.413-1.042V25.734z"/>
	</g>
	<g>
		<path fill="#FFFFFF" d="M870.749,28.932c0.142,0,0.255-0.038,0.338-0.115c0.084-0.08,0.126-0.188,0.126-0.325v-2.796
			c0-0.112-0.043-0.203-0.129-0.271c-0.085-0.07-0.198-0.105-0.336-0.105c-0.128,0-0.231,0.035-0.312,0.105
			c-0.079,0.068-0.119,0.159-0.119,0.271v2.796c0,0.14,0.037,0.249,0.112,0.325C870.503,28.894,870.61,28.932,870.749,28.932z"/>
	</g>
	<g>
		<path fill="#D4C978" d="M873.132,24.561h1.046v3.934c0,0.122,0.024,0.209,0.068,0.263c0.043,0.055,0.115,0.083,0.213,0.083
			c0.077,0,0.174-0.037,0.293-0.108c0.117-0.074,0.225-0.165,0.322-0.278v-3.894h1.049v5.131h-1.049v-0.566
			c-0.192,0.208-0.393,0.369-0.603,0.477c-0.209,0.108-0.411,0.164-0.608,0.164c-0.243,0-0.425-0.077-0.548-0.231
			c-0.122-0.151-0.183-0.38-0.183-0.688V24.561z"/>
	</g>
	<g>
		<polygon fill="#D4C978" points="866.383,22.737 867.15,25.517 867.224,25.517 867.954,22.737 869.153,22.737 867.78,26.807 
			867.78,29.693 866.599,29.693 866.599,26.936 865.194,22.737 		"/>
	</g>
	<g>
		<path fill="#D4C978" d="M880.113,37.377c0,1.856-1.505,3.362-3.362,3.362h-11.681c-1.857,0-3.362-1.506-3.362-3.362v-2.703
			c0-1.857,1.505-3.362,3.362-3.362h11.681c1.857,0,3.362,1.505,3.362,3.362V37.377z"/>
	</g>
	<g>
		<polygon fill="#FFFFFF" points="864.303,33.415 865.389,33.415 865.389,38.811 866.439,38.811 866.439,33.415 867.524,33.415 
			867.524,32.497 864.303,32.497 		"/>
	</g>
	<g>
		<path fill="#FFFFFF" d="M873.063,34.096c-0.145,0-0.288,0.037-0.43,0.111c-0.139,0.074-0.273,0.183-0.398,0.325v-2.034h-0.941
			v6.314h0.941v-0.357c0.121,0.144,0.255,0.249,0.398,0.316c0.141,0.068,0.304,0.101,0.487,0.101c0.275,0,0.488-0.087,0.632-0.263
			c0.146-0.177,0.219-0.43,0.219-0.759v-2.585c0-0.382-0.077-0.672-0.234-0.87C873.583,34.196,873.357,34.096,873.063,34.096z
			 M873.011,37.721c0,0.15-0.027,0.256-0.08,0.321c-0.054,0.067-0.137,0.099-0.252,0.099c-0.079,0-0.152-0.018-0.225-0.05
			c-0.071-0.032-0.146-0.089-0.22-0.164v-2.902c0.063-0.065,0.127-0.113,0.192-0.143c0.065-0.032,0.131-0.046,0.197-0.046
			c0.126,0,0.223,0.04,0.29,0.12c0.065,0.082,0.098,0.201,0.098,0.359V37.721z"/>
	</g>
	<g>
		<path fill="#FFFFFF" d="M869.661,37.692c-0.087,0.1-0.183,0.182-0.288,0.249c-0.105,0.065-0.193,0.097-0.259,0.097
			c-0.087,0-0.151-0.024-0.192-0.074c-0.037-0.049-0.058-0.128-0.058-0.238v-3.574h-0.931v3.895c0,0.278,0.055,0.483,0.164,0.625
			c0.11,0.138,0.271,0.207,0.487,0.207c0.175,0,0.355-0.048,0.541-0.148c0.186-0.101,0.365-0.244,0.537-0.432v0.51h0.932v-4.658
			h-0.932V37.692z"/>
	</g>
	<g>
		<path fill="#FFFFFF" d="M875.873,34.037c-0.417,0-0.755,0.126-1.019,0.382c-0.264,0.253-0.396,0.584-0.396,0.985v2.094
			c0,0.45,0.121,0.802,0.36,1.056c0.239,0.256,0.568,0.384,0.986,0.384c0.464,0,0.812-0.12,1.044-0.361
			c0.236-0.243,0.35-0.602,0.35-1.08v-0.239h-0.957v0.212c0,0.275-0.033,0.452-0.093,0.532c-0.061,0.08-0.169,0.12-0.324,0.12
			c-0.149,0-0.254-0.046-0.316-0.14c-0.061-0.096-0.09-0.265-0.09-0.512v-0.877h1.78v-1.19c0-0.44-0.113-0.778-0.343-1.015
			C876.628,34.155,876.3,34.037,875.873,34.037z M876.242,35.87h-0.823v-0.471c0-0.195,0.03-0.337,0.096-0.418
			c0.065-0.087,0.171-0.129,0.319-0.129c0.141,0,0.246,0.042,0.309,0.129c0.065,0.081,0.098,0.222,0.098,0.418V35.87z"/>
	</g>
	<circle fill="#D4C978" cx="738.485" cy="32.457" r="15"/>
	<g>
		<path fill="#FFFFFF" d="M738.248,47.403c-1.463,0-2.917-0.21-4.322-0.625c-0.075-0.022-0.136-0.079-0.164-0.152
			c-0.027-0.073-0.019-0.155,0.023-0.222c0.723-1.144,1.221-2.202,1.479-3.146c0.185-0.665,1.055-4.118,1.055-4.118
			c0.025-0.1,0.109-0.175,0.213-0.187c0.01-0.001,0.02-0.002,0.029-0.002c0.092,0,0.178,0.051,0.222,0.134
			c0.447,0.854,1.857,1.736,3.443,1.736c4.618,0,7.843-4.125,7.843-10.03c0-4.102-3.458-8.344-9.245-8.344
			c-4.349,0-10.472,2.83-10.472,9.121c0,2.697,1.091,4.754,2.917,5.5c0.057,0.023,0.111,0.035,0.16,0.035
			c0.127,0,0.212-0.082,0.254-0.243l0.306-1.203c0.075-0.282,0.071-0.334-0.164-0.611c-0.705-0.834-1.048-1.85-1.048-3.104
			c0-3.604,2.676-7.434,7.635-7.434c3.943,0,6.491,2.354,6.491,5.998c0,4.689-2.152,8.226-5.006,8.226
			c-0.867,0-1.653-0.364-2.155-0.999c-0.484-0.611-0.646-1.392-0.455-2.198c0.165-0.697,0.386-1.412,0.6-2.104
			c0.369-1.195,0.718-2.324,0.718-3.161c0-0.968-0.466-2.001-1.773-2.001c-1.482,0-2.644,1.596-2.644,3.633
			c0,1.342,0.448,2.252,0.453,2.261c0.026,0.053,0.033,0.112,0.02,0.17l-1.93,8.174c-0.222,0.941-0.308,2.078-0.254,3.377
			c0.003,0.086-0.038,0.168-0.109,0.216c-0.042,0.029-0.091,0.044-0.141,0.044c-0.034,0-0.068-0.007-0.101-0.021
			c-5.546-2.434-9.129-7.916-9.129-13.967c0-8.409,6.842-15.251,15.251-15.251c8.408,0,15.249,6.842,15.249,15.251
			S746.656,47.403,738.248,47.403z"/>
		<path fill="#D4C978" d="M738.248,17.153c8.283,0,15,6.715,15,15c0,8.284-6.716,15-15,15c-1.477,0-2.902-0.217-4.251-0.615
			c0.569-0.901,1.192-2.057,1.51-3.214c0.184-0.667,1.055-4.123,1.055-4.123c0.522,0.994,2.045,1.87,3.665,1.87
			c4.822,0,8.094-4.396,8.094-10.28c0-4.449-3.769-8.593-9.496-8.593c-7.127,0-10.721,5.11-10.721,9.371
			c0,2.58,0.976,4.875,3.072,5.731c0.088,0.036,0.175,0.054,0.255,0.054c0.232,0,0.421-0.147,0.496-0.43
			c0.068-0.264,0.234-0.928,0.305-1.204c0.101-0.376,0.062-0.508-0.215-0.836c-0.604-0.713-0.989-1.635-0.989-2.942
			c0-3.79,2.835-7.183,7.385-7.183c4.027,0,6.241,2.461,6.241,5.749c0,4.325-1.914,7.975-4.756,7.975
			c-1.57,0-2.743-1.298-2.368-2.889c0.45-1.9,1.325-3.951,1.325-5.323c0-1.227-0.659-2.252-2.024-2.252
			c-1.604,0-2.893,1.66-2.893,3.883c0,1.416,0.479,2.374,0.479,2.374s-1.642,6.955-1.93,8.173c-0.269,1.14-0.303,2.397-0.261,3.445
			c-5.285-2.32-8.979-7.597-8.979-13.739C723.247,23.868,729.964,17.153,738.248,17.153 M738.248,16.653
			c-8.547,0-15.5,6.953-15.5,15.5c0,6.15,3.642,11.723,9.278,14.196c0.064,0.028,0.133,0.042,0.201,0.042
			c0.099,0,0.198-0.029,0.282-0.087c0.143-0.097,0.225-0.261,0.218-0.433c-0.052-1.278,0.032-2.392,0.248-3.31l1.93-8.173
			c0.027-0.114,0.013-0.234-0.04-0.339c-0.003-0.007-0.427-0.882-0.427-2.15c0-1.897,1.051-3.383,2.393-3.383
			c1.414,0,1.524,1.341,1.524,1.752c0,0.799-0.344,1.911-0.708,3.089c-0.215,0.695-0.437,1.414-0.604,2.119
			c-0.208,0.882-0.03,1.738,0.503,2.411c0.55,0.695,1.407,1.094,2.351,1.094c2.997,0,5.256-3.644,5.256-8.475
			c0-3.796-2.646-6.249-6.741-6.249c-4.495,0-7.885,3.303-7.885,7.683c0,1.316,0.362,2.385,1.107,3.265
			c0.126,0.149,0.145,0.194,0.147,0.204c0,0.003,0.004,0.039-0.033,0.18c-0.039,0.148-0.102,0.398-0.163,0.642l-0.143,0.566
			c-0.009,0.035-0.021,0.055-0.026,0.062c0.004-0.008-0.018-0.01-0.052-0.024c-1.755-0.717-2.761-2.637-2.761-5.268
			c0-6.118,5.977-8.871,10.221-8.871c5.631,0,8.996,4.115,8.996,8.093c0,5.759-3.123,9.78-7.594,9.78
			c-1.49,0-2.808-0.814-3.222-1.602c-0.087-0.166-0.258-0.268-0.442-0.268c-0.02,0-0.039,0.001-0.059,0.003
			c-0.206,0.024-0.375,0.173-0.426,0.375c-0.009,0.034-0.872,3.458-1.052,4.112c-0.253,0.921-0.741,1.957-1.45,3.08
			c-0.084,0.133-0.101,0.297-0.045,0.443c0.055,0.146,0.176,0.259,0.326,0.303c1.428,0.422,2.906,0.635,4.393,0.635
			c8.546,0,15.5-6.953,15.5-15.5S746.794,16.653,738.248,16.653L738.248,16.653z"/>
	</g>
	<g>
		<g>
			<path fill="#FFFFFF" d="M605.787,47.402c-8.409,0-15.25-6.841-15.25-15.249c0-8.409,6.841-15.25,15.25-15.25
				s15.25,6.841,15.25,15.25C621.037,40.561,614.196,47.402,605.787,47.402z"/>
			<path fill="#D4C978" d="M605.787,17.153c8.285,0,15,6.717,15,15c0,8.284-6.716,14.999-15,14.999c-8.284,0-15-6.715-15-14.999
				C590.788,23.87,597.503,17.153,605.787,17.153 M605.787,16.653c-8.546,0-15.5,6.953-15.5,15.5c0,8.546,6.953,15.499,15.5,15.499
				c8.547,0,15.5-6.953,15.5-15.499C621.288,23.607,614.334,16.653,605.787,16.653L605.787,16.653z"/>
		</g>
		<g>
			<path fill="#D4C978" d="M609.455,41.487c-0.849,0-1.649-0.214-2.348-0.59c-0.509,0.093-1.033,0.143-1.568,0.143
				c-4.732,0-8.567-3.836-8.567-8.566c0-0.59,0.059-1.166,0.173-1.723c-0.433-0.738-0.683-1.595-0.683-2.513
				c0-2.743,2.224-4.968,4.968-4.968c0.973,0,1.877,0.281,2.643,0.764c0.476-0.083,0.966-0.126,1.466-0.126
				c4.73,0,8.566,3.836,8.566,8.566c0,0.631-0.069,1.246-0.199,1.838c0.331,0.665,0.518,1.413,0.518,2.207
				C614.424,39.262,612.199,41.487,609.455,41.487z"/>
		</g>
		<g>
			<path fill="#FFFFFF" d="M609.217,32.127c-0.401-0.262-0.895-0.487-1.465-0.669c-0.564-0.181-1.2-0.349-1.894-0.496
				c-0.547-0.127-0.947-0.225-1.185-0.29c-0.233-0.064-0.465-0.155-0.69-0.269c-0.216-0.108-0.388-0.238-0.51-0.388
				c-0.115-0.14-0.171-0.303-0.171-0.499c0-0.316,0.174-0.587,0.532-0.821c0.371-0.243,0.87-0.366,1.484-0.366
				c0.661,0,1.143,0.112,1.431,0.332c0.296,0.225,0.555,0.545,0.769,0.951c0.184,0.316,0.35,0.539,0.51,0.679
				c0.172,0.154,0.421,0.231,0.738,0.231c0.349,0,0.645-0.124,0.88-0.368c0.233-0.242,0.352-0.52,0.352-0.827
				c0-0.318-0.091-0.647-0.268-0.977c-0.176-0.328-0.457-0.642-0.833-0.936c-0.374-0.293-0.85-0.529-1.415-0.707
				c-0.562-0.174-1.234-0.263-1.999-0.263c-0.956,0-1.802,0.134-2.513,0.397c-0.721,0.266-1.28,0.654-1.663,1.154
				c-0.386,0.503-0.582,1.086-0.582,1.733c0,0.679,0.186,1.256,0.555,1.718c0.362,0.452,0.857,0.814,1.471,1.076
				c0.6,0.256,1.356,0.481,2.245,0.672c0.654,0.137,1.182,0.268,1.571,0.389c0.374,0.117,0.682,0.287,0.914,0.505
				c0.222,0.208,0.331,0.475,0.331,0.813c0,0.428-0.207,0.777-0.634,1.068c-0.437,0.299-1.017,0.45-1.726,0.45
				c-0.515,0-0.934-0.075-1.245-0.221c-0.309-0.146-0.55-0.333-0.718-0.557c-0.175-0.231-0.34-0.524-0.492-0.871
				c-0.136-0.319-0.305-0.568-0.503-0.734c-0.206-0.175-0.46-0.263-0.754-0.263c-0.359,0-0.659,0.112-0.895,0.333
				c-0.237,0.221-0.357,0.495-0.357,0.809c0,0.501,0.185,1.023,0.548,1.547c0.36,0.52,0.835,0.941,1.411,1.252
				c0.805,0.427,1.836,0.645,3.067,0.645c1.025,0,1.926-0.16,2.677-0.471c0.759-0.317,1.344-0.76,1.74-1.319
				c0.398-0.565,0.6-1.208,0.6-1.913c0-0.589-0.117-1.097-0.349-1.509C609.952,32.738,609.628,32.394,609.217,32.127z"/>
		</g>
	</g>
</g>
<g id="menu">
</g>
<g id="logo">
</g>
<g id="grid" display="none">
</g>
</svg>
