<?xml version="1.0" encoding="utf-8"?>
<!-- Generator: Adobe Illustrator 18.1.1, SVG Export Plug-In . SVG Version: 6.00 Build 0)  -->
<!DOCTYPE svg PUBLIC "-//W3C//DTD SVG 1.1//EN" "http://www.w3.org/Graphics/SVG/1.1/DTD/svg11.dtd">
<svg version="1.1" xmlns="http://www.w3.org/2000/svg" xmlns:xlink="http://www.w3.org/1999/xlink" id="oomp-logo" x="0px" y="0px"
	 viewBox="0 0 250 250" enable-background="new 0 0 250 250" xml:space="preserve">
<g id="OO">
	<circle id="oLeft" fill="#353833" cx="73.646" cy="90.341" r="59.755"/>
	<circle id="oRight" fill="#353833" cx="176.795" cy="90.341" r="59.755"/>
	<g id="oLeftHighlight">
		<path fill="#4D4D4D" d="M18.646,88.341c0,0-0.06-1.305-0.116-3.587c-0.011-0.57-0.023-1.202-0.036-1.889
			c0.061-0.691,0.128-1.439,0.199-2.238c0.075-0.805,0.155-1.661,0.24-2.564c0.023-0.459,0.123-0.909,0.223-1.372
			c0.097-0.464,0.196-0.939,0.297-1.424c0.205-0.973,0.42-1.986,0.641-3.035c0.333-1.02,0.677-2.074,1.031-3.158
			c0.179-0.543,0.361-1.093,0.545-1.651c0.204-0.549,0.467-1.082,0.702-1.635c0.479-1.102,1-2.214,1.521-3.351
			c1.292-2.133,2.431-4.481,4.093-6.53c1.478-2.185,3.35-4.103,5.124-6.103c1.998-1.777,3.918-3.647,6.103-5.125
			c0.529-0.39,1.056-0.778,1.581-1.165c0.513-0.404,1.107-0.68,1.654-1.019c1.113-0.646,2.213-1.284,3.294-1.911
			c1.138-0.519,2.249-1.045,3.351-1.523c0.552-0.235,1.086-0.498,1.635-0.702c0.557-0.184,1.108-0.365,1.651-0.544
			c1.084-0.354,2.138-0.698,3.158-1.031c1.049-0.221,2.063-0.435,3.036-0.64c0.977-0.176,1.888-0.454,2.792-0.52
			c0.898-0.084,1.751-0.163,2.552-0.238c0.797-0.071,1.543-0.138,2.233-0.199c0.694,0.013,1.331,0.025,1.906,0.036
			c2.297,0.056,3.592,0.117,3.592,0.117s-1.303,0.192-3.552,0.478c-0.561,0.07-1.182,0.148-1.858,0.233
			c-0.666,0.145-1.387,0.303-2.156,0.471c-0.766,0.165-1.581,0.34-2.44,0.524c-0.861,0.164-1.729,0.506-2.651,0.768
			c-0.915,0.284-1.868,0.579-2.855,0.885c-0.955,0.39-1.943,0.793-2.958,1.207c-0.506,0.205-1.02,0.413-1.539,0.623
			c-0.511,0.23-1.004,0.517-1.515,0.777c-1.012,0.541-2.063,1.053-3.119,1.597c-1.992,1.303-4.13,2.515-6.062,4.098
			c-2.053,1.422-3.837,3.228-5.712,4.921c-1.696,1.872-3.5,3.658-4.923,5.711c-1.588,1.928-2.795,4.069-4.1,6.061
			c-0.542,1.057-1.058,2.107-1.598,3.119c-0.26,0.511-0.547,1.004-0.777,1.515c-0.21,0.52-0.418,1.033-0.623,1.54
			c-0.415,1.015-0.818,2.003-1.208,2.958c-0.306,0.987-0.601,1.94-0.885,2.855c-0.262,0.921-0.603,1.794-0.767,2.648
			c-0.184,0.855-0.358,1.666-0.522,2.428c-0.168,0.768-0.325,1.487-0.471,2.151c-0.085,0.682-0.163,1.309-0.234,1.875
			C18.837,87.048,18.646,88.341,18.646,88.341z"/>
	</g>
	<g id="oRightHighLight">
		<path fill="#4D4D4D" d="M126.115,64.94c0,0,0.329-0.897,0.949-2.444c0.163-0.384,0.315-0.818,0.533-1.273
			c0.228-0.452,0.476-0.941,0.74-1.463c0.269-0.525,0.555-1.083,0.857-1.672c0.33-0.569,0.71-1.146,1.09-1.762
			c0.395-0.604,0.76-1.271,1.226-1.897c0.469-0.626,0.953-1.272,1.451-1.937c0.483-0.68,1.057-1.313,1.629-1.974
			c0.579-0.655,1.153-1.346,1.807-1.977c1.306-1.265,2.629-2.613,4.155-3.774l1.119-0.909l1.181-0.841
			c0.799-0.547,1.572-1.144,2.401-1.654c0.841-0.49,1.682-0.979,2.52-1.467c0.838-0.487,1.727-0.871,2.58-1.306
			c0.43-0.211,0.858-0.421,1.284-0.63c0.442-0.172,0.883-0.343,1.32-0.513c0.878-0.33,1.732-0.688,2.594-0.98
			c1.743-0.531,3.414-1.079,5.057-1.37c0.815-0.166,1.602-0.352,2.371-0.485c0.776-0.092,1.526-0.182,2.245-0.268
			c1.429-0.219,2.759-0.226,3.929-0.256c0.585-0.013,1.13-0.038,1.635-0.038c0.505,0.031,0.97,0.06,1.389,0.085
			c1.673,0.111,2.617,0.204,2.617,0.204s-0.949,0.161-2.589,0.393c-0.409,0.056-0.862,0.118-1.354,0.185
			c-0.488,0.097-1.016,0.201-1.58,0.313c-1.125,0.222-2.393,0.438-3.748,0.811c-0.678,0.171-1.384,0.348-2.115,0.532
			c-0.718,0.222-1.461,0.452-2.225,0.688c-1.54,0.42-3.079,1.114-4.713,1.682c-0.804,0.323-1.596,0.711-2.411,1.069
			c-0.405,0.184-0.813,0.368-1.222,0.554c-0.4,0.206-0.802,0.413-1.205,0.621c-0.8,0.429-1.636,0.804-2.42,1.282
			c-0.785,0.475-1.573,0.952-2.361,1.429c-0.794,0.467-1.533,1.02-2.3,1.523l-1.135,0.774l-1.075,0.843
			c-0.7,0.577-1.453,1.08-2.121,1.669c-0.674,0.584-1.34,1.16-1.994,1.727c-0.663,0.561-1.224,1.205-1.844,1.768
			c-0.603,0.579-1.21,1.134-1.729,1.74c-1.071,1.182-2.122,2.277-2.98,3.384c-0.446,0.542-0.873,1.062-1.28,1.557
			c-0.379,0.513-0.738,1-1.076,1.457c-0.68,0.915-1.294,1.718-1.73,2.43C126.666,64.16,126.115,64.94,126.115,64.94z"/>
	</g>
	<path id="oTopShade" fill="#181A17" d="M125.72,59.211c0,0.276-0.224,0.5-0.5,0.5c-0.276,0-0.5-0.224-0.5-0.5l0.5,1.932
		L125.72,59.211z"/>
	<path id="oBottomSahde" fill="#181A17" d="M124.72,121.43c0-0.276,0.224-0.5,0.5-0.5c0.276,0,0.5,0.224,0.5,0.5l-0.5-1.932
		L124.72,121.43z"/>
	<path id="oMiddleHighLight" fill="#4D4D4D" d="M123.647,84.368c0,0.828-0.797,1.812-1.625,1.812c-0.828,0-1.067-0.959-1.067-1.788
		c0-0.828,0.818-2.97,1.5-2.5C123.3,82.473,123.647,83.539,123.647,84.368z"/>
</g>
<g id="MP">
	<g id="mpGroup">
		
			<path fill="none" stroke="#353833" stroke-width="1.4644" stroke-linecap="round" stroke-linejoin="round" stroke-miterlimit="10" d="
			M135.792,181.097c0,1.011-0.82,1.831-1.831,1.831s-1.831-0.82-1.831-1.831"/>
		
			<path fill="none" stroke="#353833" stroke-width="1.4644" stroke-linecap="round" stroke-linejoin="round" stroke-miterlimit="10" d="
			M135.79,181.097v-20.214c0-3.244,2.629-5.873,5.873-5.873c3.244,0,5.873,2.42,5.873,5.873c0,3.532-2.629,5.968-5.873,5.968h-0.614
			c-0.404,0-0.732,0.328-0.732,0.732c0,0.404,0.328,0.732,0.732,0.732"/>
		
			<path fill="none" stroke="#4D4D4D" stroke-width="0.25" stroke-linecap="round" stroke-linejoin="round" stroke-miterlimit="10" d="
			M146.304,158.019c0.467,0.803,0.732,1.766,0.732,2.864c0,2.775-1.623,4.627-3.893,5.293"/>
		
			<path fill="none" stroke="#262626" stroke-width="0.25" stroke-linecap="round" stroke-linejoin="round" stroke-miterlimit="10" d="
			M146.381,156.635c0.966,1.119,1.555,2.613,1.555,4.248c0,3.532-2.629,6.368-5.873,6.368"/>
		
			<path fill="none" stroke="#353833" stroke-width="1.4644" stroke-linecap="round" stroke-linejoin="round" stroke-miterlimit="10" d="
			M132.129,181.097v-20.214c0-3.244-2.629-5.873-5.873-5.873c-3.244,0-5.873,2.629-5.873,5.873v0.011
			c0,0.459-0.372,0.831-0.831,0.831s-0.831-0.372-0.831-0.831l-0.015-0.011c0-3.244-2.629-5.873-5.873-5.873
			c-3.244,0-5.873,2.629-5.873,5.873v12.356"/>
		
			<path fill="none" stroke="#262626" stroke-width="0.25" stroke-linecap="round" stroke-linejoin="round" stroke-miterlimit="10" d="
			M132.529,181.097v-20.214c0-1.549-0.6-2.958-1.579-4.007"/>
		
			<path fill="none" stroke="#262626" stroke-width="0.25" stroke-linecap="round" stroke-linejoin="round" stroke-miterlimit="10" d="
			M130.363,157.148c-1.008-1.096-2.455-1.783-4.062-1.783c-3.048,0-5.518,2.471-5.518,5.518"/>
		
			<path fill="none" stroke="#262626" stroke-width="0.25" stroke-linecap="round" stroke-linejoin="round" stroke-miterlimit="10" d="
			M119.097,161.999c-0.549,0-0.831-0.788-0.831-1.431l-0.015-0.011"/>
		
			<path fill="none" stroke="#353833" stroke-width="1.4644" stroke-linecap="round" stroke-linejoin="round" stroke-miterlimit="10" d="
			M105.495,173.239c0,0.404,0.328,0.732,0.732,0.732c0.404,0,0.732-0.328,0.732-0.732"/>
		
			<path fill="none" stroke="#262626" stroke-width="0.25" stroke-linecap="round" stroke-linejoin="round" stroke-miterlimit="10" d="
			M106.495,174.371c0.537,0,0.932-0.566,0.932-1.032"/>
		
			<path fill="none" stroke="#4D4D4D" stroke-width="0.25" stroke-linecap="round" stroke-linejoin="round" stroke-miterlimit="10" d="
			M131.8,180.097v-19.214"/>
		
			<line fill="none" stroke="#666666" stroke-width="0.25" stroke-linecap="round" stroke-linejoin="round" stroke-miterlimit="10" x1="131.8" y1="170.513" x2="131.8" y2="163.243"/>
		
			<path fill="none" stroke="#4D4D4D" stroke-width="0.25" stroke-linecap="round" stroke-linejoin="round" stroke-miterlimit="10" d="
			M126.036,154.658c-3.244,0-5.873,2.629-5.873,5.873v0.011"/>
		
			<path fill="none" stroke="#666666" stroke-width="0.25" stroke-linecap="round" stroke-linejoin="round" stroke-miterlimit="10" d="
			M123.967,155.034c-1.273,0.438-2.439,1.556-3.147,2.799"/>
		
			<path fill="none" stroke="#262626" stroke-width="0.25" stroke-linecap="round" stroke-linejoin="round" stroke-miterlimit="10" d="
			M141.536,155.307c-3.056,0-5.373,2.498-5.373,5.494v19.942"/>
		
			<path fill="none" stroke="#4D4D4D" stroke-width="0.25" stroke-linecap="round" stroke-linejoin="round" stroke-miterlimit="10" d="
			M141.436,154.656c-3.056,0-5.873,2.836-5.873,5.873v20.214"/>
		
			<path fill="none" stroke="#666666" stroke-width="0.25" stroke-linecap="round" stroke-linejoin="round" stroke-miterlimit="10" d="
			M138.725,155.404c-1.828,1.041-3.162,3.036-3.162,5.125v11.4"/>
		
			<path fill="none" stroke="#262626" stroke-width="0.25" stroke-linecap="round" stroke-linejoin="round" stroke-miterlimit="10" d="
			M107.127,173.239"/>
		
			<path fill="none" stroke="#262626" stroke-width="0.25" stroke-linecap="round" stroke-linejoin="round" stroke-miterlimit="10" d="
			M118.25,160.446c0-2.761-2.418-5-5.4-5s-5.4,2.239-5.4,5"/>
		
			<path fill="none" stroke="#262626" stroke-width="0.25" stroke-linecap="round" stroke-linejoin="round" stroke-miterlimit="10" d="
			M107.427,160.446v12.793"/>
		
			<path fill="none" stroke="#4D4D4D" stroke-width="0.25" stroke-linecap="round" stroke-linejoin="round" stroke-miterlimit="10" d="
			M112.636,154.885c-3.244,0-5.873,2.629-5.873,5.873v12.356"/>
		
			<path fill="none" stroke="#666666" stroke-width="0.25" stroke-linecap="round" stroke-linejoin="round" stroke-miterlimit="10" d="
			M110.503,155.285c-1.915,0.747-3.342,2.47-3.669,4.558"/>
		<circle fill="#666666" cx="105.396" cy="172.851" r="0.15"/>
		<circle fill="#666666" cx="119.91" cy="161.325" r="0.15"/>
		<circle fill="#666666" cx="140.317" cy="166.878" r="0.15"/>
		<circle fill="#666666" cx="134.617" cy="182.278" r="0.15"/>
		
			<path fill="none" stroke="#262626" stroke-width="0.25" stroke-linecap="round" stroke-linejoin="round" stroke-miterlimit="10" d="
			M136.179,181.197c0,1.197-0.971,2.168-2.168,2.168c-0.599,0-1.141-0.243-1.533-0.635"/>
	</g>
</g>
<g id="old">
</g>
</svg>
