<svg id="oomp-button" xmlns="http://www.w3.org/2000/svg" xmlns:xlink="http://www.w3.org/1999/xlink" viewBox="0 0 577.2 245">
  <defs>
    <style>
      .cls-1, .cls-2 {
        fill: #fff;
      }

      .cls-1 {
        stroke: #d47878;
        stroke-miterlimit: 10;
        stroke-width: 0.25px;
      }

      .cls-3, .cls-7 {
        fill: #9f9898;
      }

      .cls-4 {
        fill: #dfd4d4;
      }

      .cls-5 {
        fill: url(#radial-gradient);
      }

      .cls-6, .cls-7 {
        isolation: isolate;
        font-size: 80.78px;
        font-family: Cronos Pro;
      }

      .cls-6 {
        fill: #e4ddb7;
      }

      .cls-8 {
        fill: red;
        fill-opacity: 0;
      }
    </style>
    <radialGradient id="radial-gradient" cx="-482.59" cy="109.16" r="15.51" gradientTransform="matrix(9.36, 0, 0, -9.36, 4661.83, 1172.07)" gradientUnits="userSpaceOnUse">
      <stop offset="0" stop-color="#f0e6e6"/>
      <stop offset="0.38" stop-color="#eae1cd"/>
      <stop offset="0.73" stop-color="#e5debd"/>
      <stop offset="1" stop-color="#e4ddb7"/>
    </radialGradient>
  </defs>
  <title>oomp-button-4</title>
  <g id="button">
    <path id="button-bottom-bg" class="cls-1" d="M285.6,123.2a116.05,116.05,0,1,1-232.1,0H285.6Z" transform="translate(-45.9)"/>
    <path id="button-top-bg" class="cls-2" d="M45.9,131.3a124,124,0,1,1,248,0H45.9Z" transform="translate(-45.9)"/>
    <g id="button-group">
      <circle id="button-shade-whole-circle" class="cls-3" cx="125.4" cy="124.6" r="76.3"/>
      <path id="button-shade-half-circle" class="cls-4" d="M225.2,70.8A76.3,76.3,0,1,1,117.3,178.7Z" transform="translate(-45.9)"/>
      <circle id="button-gradient" class="cls-5" cx="125.4" cy="124.6" r="74.4"/>
    </g>
    <g id="text">
      <text class="cls-6" transform="translate(329.81 152.6)">A<tspan x="50.25" y="0">B</tspan><tspan x="92.01" y="0">O</tspan><tspan x="149.77" y="0">U</tspan><tspan x="202.85" y="0">T</tspan></text>
      <text class="cls-7" transform="translate(325.78 148.56)">A<tspan x="50.25" y="0">B</tspan><tspan x="92.01" y="0">O</tspan><tspan x="149.77" y="0">U</tspan><tspan x="202.85" y="0">T</tspan></text>
    </g>
    <path id="hit" class="cls-8" d="M623,156.4s-334.2-3-335.1,0a122.35,122.35,0,1,1,0-68.1c0.8,2.6,335.2,0,335.2,0v68.1H623Z" transform="translate(-45.9)"/>
  </g>
</svg>
