<svg id="social-facebook" xmlns="http://www.w3.org/2000/svg" viewBox="0 0 295.2 295.2">
  <defs>
    <style>
      .cls-1 {
        fill: #e6dcdc;
      }

      .cls-2 {
        fill: #fff;
      }

      .cls-3 {
        fill: #d4c978;
      }
    </style>
  </defs>
  <title>social-facebook-n</title>
  <g id="facebook">
    <g id="circleback">
      <circle class="cls-1" cx="147.6" cy="147.6" r="147.6"/>
    </g>
    <g id="circleFront">
      <path class="cls-2" d="M320,376.4c-75.2,0-136.4-61.2-136.4-136.4S244.8,103.6,320,103.6,456.4,164.8,456.4,240,395.2,376.4,320,376.4Z" transform="translate(-172.4 -92.4)"/>
      <path class="cls-3" d="M320,105.8A134.11,134.11,0,0,1,454.1,239.9c0,74-60,134.2-134.1,134.2a134.15,134.15,0,0,1,0-268.3m0-4.4c-76.4,0-138.6,62.2-138.6,138.6S243.6,378.6,320,378.6,458.6,316.4,458.6,240,396.4,101.4,320,101.4h0Z" transform="translate(-172.4 -92.4)"/>
    </g>
    <g id="logo">
      <path class="cls-3" d="M355.5,240H332.3v82.8H297.9V240H281.5V210.8h16.4V191.9c0-13.6,6.4-34.7,34.8-34.7l25.5,0.1v28.4H339.7c-3,0-7.3,1.5-7.3,8v17.2h26.2Z" transform="translate(-172.4 -92.4)"/>
    </g>
  </g>
</svg>
