<?xml version="1.0" encoding="utf-8"?>
<!-- Generator: Adobe Illustrator 18.1.1, SVG Export Plug-In . SVG Version: 6.00 Build 0)  -->
<!DOCTYPE svg PUBLIC "-//W3C//DTD SVG 1.1//EN" "http://www.w3.org/Graphics/SVG/1.1/DTD/svg11.dtd">
<svg version="1.1" id="social-facebook" xmlns="http://www.w3.org/2000/svg" xmlns:xlink="http://www.w3.org/1999/xlink" x="0px" y="0px"
	 viewBox="0 0 640 480" enable-background="new 0 0 640 480" xml:space="preserve">
	<g id="facebook">
		<g id="circleback">
			<circle fill="#E6DCDC" cx="320" cy="240" r="147.6"/>
		</g>
		<g id="circleFront">
			<path fill="#FFFFFF" d="M320,376.4c-75.2,0-136.4-61.2-136.4-136.4c0-75.2,61.2-136.4,136.4-136.4S456.4,164.8,456.4,240
				C456.4,315.2,395.2,376.4,320,376.4z"/>
			<g>
				<path fill="#D4C978" d="M320,105.8c74.1,0,134.1,60.1,134.1,134.1S394.1,374.1,320,374.1s-134.1-60-134.1-134.1
					C185.9,165.9,245.9,105.8,320,105.8 M320,101.4c-76.4,0-138.6,62.2-138.6,138.6c0,76.4,62.2,138.6,138.6,138.6
					S458.6,316.4,458.6,240S396.4,101.4,320,101.4L320,101.4z"/>
			</g>
		</g>
		<g id="logo">
			<path fill="#D4C978" d="M355.5,240h-23.2c0,37.1,0,82.8,0,82.8h-34.4c0,0,0-45.2,0-82.8h-16.4v-29.2h16.4v-18.9
				c0-13.6,6.4-34.7,34.8-34.7l25.5,0.1v28.4c0,0-15.5,0-18.5,0s-7.3,1.5-7.3,8v17.2h26.2L355.5,240z"/>
		</g>
	</g>
</svg>
