<?xml version="1.0" encoding="utf-8"?>
<!-- Generator: Adobe Illustrator 18.1.1, SVG Export Plug-In . SVG Version: 6.00 Build 0)  -->
<!DOCTYPE svg PUBLIC "-//W3C//DTD SVG 1.1//EN" "http://www.w3.org/Graphics/SVG/1.1/DTD/svg11.dtd">
<svg version="1.1" id="social-behance" xmlns="http://www.w3.org/2000/svg" xmlns:xlink="http://www.w3.org/1999/xlink" x="0px" y="0px"
	 viewBox="0 0 640 480" enable-background="new 0 0 640 480" xml:space="preserve">
	<g id="behance">
		<g id="circleback">
			<circle fill="#E6DCDC" cx="320" cy="240" r="147.6"/>
		</g>
		<g>
			<path fill="#FFFFFF" d="M320,376.4c-75.2,0-136.4-61.2-136.4-136.4c0-75.2,61.2-136.4,136.4-136.4S456.4,164.8,456.4,240
				C456.4,315.2,395.2,376.4,320,376.4z"/>
			<path fill="#D4C978" d="M320,105.8c74.1,0,134.1,60,134.1,134.1c0,74.1-60.1,134.1-134.1,134.1S185.9,314.1,185.9,240
				C185.9,165.9,245.9,105.8,320,105.8 M320,101.4c-76.4,0-138.6,62.2-138.6,138.6S243.6,378.6,320,378.6S458.6,316.4,458.6,240
				C458.6,163.6,396.4,101.4,320,101.4L320,101.4z"/>
		</g>
		<g>
			<path fill="#FFFFFF" d="M323.6,262.3c3.4,0,6.3-1.3,8.5-3.9c3.5-4,5.1-10.6,4.1-17.5c-1.6-12.5-10.5-22.8-19.8-23.1l-0.4,0
				c-3.3,0-6.2,1.3-8.4,3.9c-3.5,3.9-4.9,10.2-4,17.2c1.6,12.4,10.7,23.2,19.8,23.5H323.6L323.6,262.3z"/>
		</g>
		<g>
			<path fill="#FFFFFF" d="M333.2,224.5c-0.9-0.6-1.9-1.3-2.8-1.9c-2.9-0.9-5.9-1.3-9-1.4H321c-14.3,0-26.8,8.7-26.8,18.5
				c0,10.7,10.7,19.2,24.5,19.2c18.1,0,27.3-6.2,27.3-18.5c0-1.2-0.1-2.4-0.4-3.6C344.2,232,339.8,229,333.2,224.5z"/>
		</g>
	</g>
</svg>
