<?xml version="1.0" encoding="utf-8"?>
<!-- Generator: Adobe Illustrator 18.1.1, SVG Export Plug-In . SVG Version: 6.00 Build 0)  -->
<!DOCTYPE svg PUBLIC "-//W3C//DTD SVG 1.1//EN" "http://www.w3.org/Graphics/SVG/1.1/DTD/svg11.dtd">
<svg version="1.1" id="social-twitter" xmlns="http://www.w3.org/2000/svg" xmlns:xlink="http://www.w3.org/1999/xlink" x="0px" y="0px"
	 viewBox="0 0 640 480" enable-background="new 0 0 640 480" xml:space="preserve">
	<g id="twitter">
		<g id="circleback">
			<circle fill="#E6DCDC" cx="320" cy="240" r="147.6"/>
		</g>
		<g>
			<path fill="#FFFFFF" d="M320,376.4c-75.2,0-136.4-61.2-136.4-136.4S244.8,103.6,320,103.6S456.4,164.8,456.4,240
				S395.2,376.4,320,376.4z"/>
			<g>
				<path fill="#D4C978" d="M320,105.8c74.1,0,134.1,60.1,134.1,134.1s-60,134.1-134.1,134.1c-74.1,0-134.2-60-134.2-134.1
					C185.8,165.9,245.9,105.8,320,105.8 M320,101.4c-76.4,0-138.6,62.2-138.6,138.6c0,76.4,62.2,138.6,138.6,138.6
					c76.4,0,138.6-62.2,138.6-138.6C458.6,163.6,396.4,101.4,320,101.4L320,101.4z"/>
			</g>
		</g>
		<g>
			<path fill="#D4C978" d="M385.5,206.4c0.1,1.5,0.1,2.9,0.1,4.4c0,44.7-34,96.2-96.2,96.2c-19.1,0-36.9-5.6-51.8-15.2
				c2.6,0.3,5.3,0.5,8.1,0.5c15.8,0,30.4-5.4,42-14.5c-14.8-0.3-27.3-10-31.6-23.5c2.1,0.4,4.2,0.6,6.4,0.6c3.1,0,6.1-0.4,8.9-1.2
				c-15.5-3.1-27.1-16.8-27.1-33.1c0-0.1,0-0.3,0-0.4c4.6,2.5,9.8,4,15.3,4.2c-9.1-6.1-15-16.4-15-28.1c0-6.2,1.7-12,4.6-17
				c16.7,20.4,41.6,33.9,69.7,35.3c-0.6-2.5-0.9-5.1-0.9-7.7c0-18.7,15.1-33.8,33.8-33.8c9.7,0,18.5,4.1,24.7,10.7
				c7.7-1.5,14.9-4.3,21.5-8.2c-2.5,7.9-7.9,14.5-14.9,18.7c6.8-0.8,13.4-2.6,19.4-5.3C397.9,195.7,392.1,201.6,385.5,206.4z"/>
		</g>
	</g>
</svg>
