<svg id="social-linkedin" xmlns="http://www.w3.org/2000/svg" viewBox="0 0 295.2 295.2">
  <defs>
    <style>
      .cls-1 {
        fill: #e6dcdc;
      }

      .cls-2 {
        fill: #fff;
      }

      .cls-3 {
        fill: #d4c978;
      }
    </style>
  </defs>
  <title>social-linkedin-n</title>
  <g id="linkedin">
    <g id="circleback">
      <circle class="cls-1" cx="147.6" cy="147.6" r="147.6"/>
    </g>
    <g>
      <path class="cls-2" d="M320,376.4c-75.2,0-136.4-61.2-136.4-136.4S244.8,103.6,320,103.6,456.4,164.8,456.4,240,395.2,376.4,320,376.4Z" transform="translate(-172.4 -92.4)"/>
      <path class="cls-3" d="M320,105.9A134.1,134.1,0,1,1,185.9,240c-0.1-74.1,60-134.1,134.1-134.1m0-4.5c-76.4,0-138.6,62.2-138.6,138.6S243.6,378.6,320,378.6,458.6,316.4,458.6,240,396.4,101.4,320,101.4h0Z" transform="translate(-172.4 -92.4)"/>
    </g>
    <path class="cls-3" d="M394.4,303.81a10.86,10.86,0,0,1-11,10.69H256.54a10.86,10.86,0,0,1-11-10.69V176.19a10.8,10.8,0,0,1,11-10.69H383.46a10.86,10.86,0,0,1,11,10.69V303.81h-0.1Z" transform="translate(-172.4 -92.4)"/>
    <path class="cls-2" d="M347.3,227.8c-11.72,0-17,6.45-19.93,10.94v0.2h-0.1a0.34,0.34,0,0,1,.1-0.2v-9.38H305.29c0.29,6.25,0,66.44,0,66.44h22.08V258.67a15.28,15.28,0,0,1,.68-5.37c1.56-3.91,5.28-8.11,11.33-8.11,8,0,11.24,6.06,11.24,15V295.8h22.08V257.7C372.71,237.28,361.86,227.8,347.3,227.8Z" transform="translate(-172.4 -92.4)"/>
    <path class="cls-2" d="M283.09,192c-7.28,0-12.09,5.19-12.09,12,0,6.61,4.63,12,11.81,12h0.09c7.46,0,12.09-5.29,12.09-12S290.37,192,283.09,192Z" transform="translate(-172.4 -92.4)"/>
    <rect class="cls-2" x="99.3" y="135.4" width="22.6" height="68"/>
  </g>
</svg>
