<?xml version="1.0" encoding="utf-8"?>
<!-- Generator: Adobe Illustrator 18.1.1, SVG Export Plug-In . SVG Version: 6.00 Build 0)  -->
<!DOCTYPE svg PUBLIC "-//W3C//DTD SVG 1.1//EN" "http://www.w3.org/Graphics/SVG/1.1/DTD/svg11.dtd">
<svg version="1.1" id="social-vimeo" xmlns="http://www.w3.org/2000/svg" xmlns:xlink="http://www.w3.org/1999/xlink" x="0px" y="0px"
	 viewBox="0 0 640 480" enable-background="new 0 0 640 480" xml:space="preserve">
	<g id="vimeo">
		<g id="circleback">
			<circle fill="#E6DCDC" cx="320" cy="240" r="147.6"/>
		</g>
		<g>
			<circle fill="#B8A5A5" cx="320" cy="240" r="143.1"/>
		</g>
		<g>
			<path fill="#FFFFFF" d="M320,376.4c-75.2,0-136.4-61.2-136.4-136.4S244.8,103.6,320,103.6c75.2,0,136.4,61.2,136.4,136.4
				S395.2,376.4,320,376.4z"/>
			<path fill="#D4C978" d="M320,105.9c74.1,0,134.1,60.1,134.1,134.2s-60,134.1-134.1,134.1c-74.1,0-134.1-60-134.1-134.1
				S245.9,105.9,320,105.9 M320,101.4c-76.4,0-138.6,62.2-138.6,138.6S243.6,378.6,320,378.6c76.4,0,138.6-62.2,138.6-138.6
				C458.6,163.6,396.4,101.4,320,101.4L320,101.4z"/>
		</g>
		<g>
			<path fill="#D4C978" d="M314.7,312.2c-11.1,0-20.7-9.5-25.2-18.9c-2.7-5.6-7.7-21.9-13-39.1c-5.3-17.3-11.9-38.9-14-41.4
				c-0.2-0.3-0.7-0.7-1.9-0.7c-4.1,0-10.7,4.5-12.9,6.3c-0.4,0.3-0.9,0.5-1.4,0.5c-0.1,0-0.2,0-0.3,0c-0.6-0.1-1.1-0.4-1.5-0.9
				l-6.5-8.5c-0.6-0.8-0.6-2,0.1-2.8c1.1-1.3,28-33.2,49.3-37.4c1.3-0.3,2.5-0.4,3.7-0.4c16.3,0,19.9,22,23.2,41.4
				c0.9,5.6,1.8,11,3,15.5c2.5,9.9,7.6,30.5,10.9,30.5c2.3,0,9.5-7.4,20.4-27.7c3.7-7,4.4-14,1.8-18.5c-1.5-2.5-4-3.9-7.2-3.9
				c-2.9,0-6.5,1.2-10.1,3.4c-0.4,0.2-0.8,0.3-1.2,0.3c-0.4,0-0.9-0.1-1.3-0.4c-0.7-0.5-1.1-1.4-0.9-2.2c4.1-24.7,26.6-39.5,46-39.5
				c8.7,0,16.1,3.1,20.8,8.8c5.4,6.4,7.2,15.9,5.1,27.4c-9.3,52.3-61.6,95.7-75.1,104.5C322.7,311,318.7,312.2,314.7,312.2z"/>
			<path fill="#FFFFFF" d="M375.6,170c15.4,0,27.9,10.3,23.8,33.6c-9,50.5-59,93.2-74.1,103c-3.6,2.4-7.2,3.3-10.6,3.3
				c-10.6,0-19.4-9.8-23.2-17.6c-5.7-11.8-22.8-75.7-27.3-81c-0.9-1.1-2.1-1.5-3.6-1.5c-5.7,0-14.3,6.8-14.3,6.8l-6.5-8.6
				c0,0,27.3-32.6,48-36.7c1.2-0.2,2.3-0.3,3.3-0.3c18.7,0,18.9,35.2,24,55.3c5.1,20.5,8.6,32.2,13,32.2c4.5,0,13-11.4,22.4-28.9
				c7.2-13.4,3.1-25.7-7.5-25.7c-3.2,0-7,1.1-11.3,3.7C335.7,184,357.6,170,375.6,170 M375.6,165.6L375.6,165.6
				c-20.3,0-43.9,15.5-48.2,41.4c-0.3,1.7,0.5,3.5,1.9,4.4c0.8,0.5,1.6,0.8,2.5,0.8c0.8,0,1.6-0.2,2.3-0.6c3.3-2,6.4-3.1,9-3.1
				c2.4,0,4.2,0.9,5.3,2.8c2.2,3.7,1.5,10.1-1.8,16.3c-9.7,18.1-15.8,24.7-18.1,26.2c-2.8-3.7-7-20.3-9-28.5c-1.1-4.4-2-9.7-2.9-15.4
				c-3.4-20.3-7.2-43.3-25.4-43.3c-1.3,0-2.7,0.1-4.1,0.4c-22,4.4-49.4,36.8-50.6,38.2c-1.3,1.6-1.4,3.9-0.1,5.6l6.5,8.6
				c0.7,1,1.8,1.6,3,1.7c0.2,0,0.4,0,0.6,0c1,0,2-0.3,2.8-1c3-2.4,8.7-5.8,11.6-5.8c2.2,2.8,8.9,24.6,13.8,40.5
				c5.3,17.3,10.3,33.7,13.1,39.4c4.8,10,15.1,20.1,27.2,20.1c4.5,0,8.8-1.4,13-4.1c13.7-8.9,66.6-52.8,76-106
				c2.7-15.4-1.6-24.4-5.6-29.3C393,169,385,165.6,375.6,165.6L375.6,165.6z"/>
		</g>
	</g>
</svg>
