<?xml version="1.0" encoding="utf-8"?>
<!-- Generator: Adobe Illustrator 18.1.1, SVG Export Plug-In . SVG Version: 6.00 Build 0)  -->
<!DOCTYPE svg PUBLIC "-//W3C//DTD SVG 1.1//EN" "http://www.w3.org/Graphics/SVG/1.1/DTD/svg11.dtd">
<svg version="1.1" id="social-youtube" xmlns="http://www.w3.org/2000/svg" xmlns:xlink="http://www.w3.org/1999/xlink" x="0px" y="0px"
	 viewBox="0 0 640 480" enable-background="new 0 0 640 480" xml:space="preserve">
	<g id="youtube">
		<g id="circleback">
			<circle fill="#E6DCDC" cx="320" cy="240" r="147.6"/>
		</g>
		<g>
			<circle fill="#B8A5A5" cx="320" cy="240" r="143.1"/>
		</g>
		<g>
			<path fill="#FFFFFF" d="M320,376.4c-75.2,0-136.4-61.2-136.4-136.4S244.8,103.6,320,103.6S456.4,164.8,456.4,240
				S395.2,376.4,320,376.4z"/>
			<path fill="#D4C978" d="M320,105.9c74.1,0,134.1,60.1,134.1,134.1c0,74.1-60.1,134.1-134.1,134.1s-134.1-60-134.1-134.1
				C185.9,165.9,245.9,105.9,320,105.9 M320,101.4c-76.4,0-138.6,62.2-138.6,138.6S243.6,378.6,320,378.6S458.6,316.4,458.6,240
				S396.4,101.4,320,101.4L320,101.4z"/>
		</g>
		<g>
			<path fill="#D4C978" d="M306.4,227.6c0-3.5,1.3-6.4,3.8-8.5c2.5-2.1,5.9-3.2,10.2-3.2c3.9,0,7.1,1.1,9.6,3.3
				c2.5,2.2,3.7,5.1,3.7,8.6v23.7c0,3.9-1.2,7-3.6,9.2c-2.4,2.2-5.8,3.3-10,3.3c-4.1,0-7.4-1.2-9.8-3.4c-2.5-2.3-3.7-5.4-3.7-9.3
				L306.4,227.6L306.4,227.6z"/>
		</g>
		<g>
			<path fill="#FFFFFF" d="M319.9,256.2c1.3,0,2.3-0.3,3-1c0.8-0.7,1.1-1.7,1.1-2.9v-25c0-1-0.4-1.8-1.2-2.4c-0.8-0.6-1.8-0.9-3-0.9
				c-1.2,0-2.1,0.3-2.8,0.9c-0.7,0.6-1.1,1.4-1.1,2.4v25c0,1.2,0.3,2.2,1,2.9C317.7,255.8,318.6,256.2,319.9,256.2z"/>
		</g>
		<g>
			<path fill="#D4C978" d="M306.6,216.7h9.4v35.2c0,1.1,0.2,1.9,0.6,2.4c0.4,0.5,1,0.7,1.9,0.7c0.7,0,1.6-0.3,2.6-1
				c1-0.7,2-1.5,2.9-2.5v-34.8h9.4v45.9H324v-5.1c-1.7,1.9-3.5,3.3-5.4,4.3c-1.9,1-3.7,1.5-5.4,1.5c-2.2,0-3.8-0.7-4.9-2.1
				c-1.1-1.3-1.6-3.4-1.6-6.2L306.6,216.7L306.6,216.7z"/>
		</g>
		<g>
			<polygon fill="#D4C978" points="312.9,208.9 319.8,233.8 320.4,233.8 327,208.9 337.7,208.9 325.4,245.3 325.4,271.1 314.9,271.1 
				314.9,246.4 302.3,208.9 	"/>
		</g>
		<g>
			<path fill="#D4C978" d="M402.3,252.1c0,16.6-13.5,30.1-30.1,30.1H267.8c-16.6,0-30.1-13.5-30.1-30.1v-24.2
				c0-16.6,13.5-30.1,30.1-30.1h104.5c16.6,0,30.1,13.5,30.1,30.1V252.1z"/>
		</g>
		<g>
			<polygon fill="#FFFFFF" points="305.6,220 315.3,220 315.3,268.2 324.7,268.2 324.7,220 334.4,220 334.4,211.8 305.6,211.8 	"/>
		</g>
		<g>
			<path fill="#FFFFFF" d="M323.8,225.8c-1.3,0-2.6,0.3-3.8,1c-1.2,0.7-2.4,1.6-3.6,2.9v-18.2H308V268h8.4v-3.2
				c1.1,1.3,2.3,2.2,3.6,2.8c1.3,0.6,2.7,0.9,4.4,0.9c2.5,0,4.4-0.8,5.6-2.4c1.3-1.6,2-3.8,2-6.8v-23.1c0-3.4-0.7-6-2.1-7.8
				C328.5,226.7,326.5,225.8,323.8,225.8z M323.4,258.2c0,1.3-0.2,2.3-0.7,2.9c-0.5,0.6-1.2,0.9-2.3,0.9c-0.7,0-1.4-0.2-2-0.4
				c-0.6-0.3-1.3-0.8-2-1.5v-26c0.6-0.6,1.1-1,1.7-1.3c0.6-0.3,1.2-0.4,1.8-0.4c1.1,0,2,0.4,2.6,1.1c0.6,0.7,0.9,1.8,0.9,3.2
				L323.4,258.2L323.4,258.2z"/>
		</g>
		<g>
			<path fill="#FFFFFF" d="M323.5,250.5c-0.8,0.9-1.6,1.6-2.6,2.2c-0.9,0.6-1.7,0.9-2.3,0.9c-0.8,0-1.3-0.2-1.7-0.7
				c-0.3-0.4-0.5-1.2-0.5-2.1v-32h-8.3v34.8c0,2.5,0.5,4.3,1.5,5.6c1,1.2,2.4,1.9,4.4,1.9c1.6,0,3.2-0.4,4.8-1.3s3.3-2.2,4.8-3.9v4.6
				h8.3v-41.7h-8.3L323.5,250.5L323.5,250.5z"/>
		</g>
		<g>
			<path fill="#FFFFFF" d="M320.4,218.1c-3.7,0-6.8,1.1-9.1,3.4c-2.4,2.3-3.5,5.2-3.5,8.8V249c0,4,1.1,7.2,3.2,9.4
				c2.1,2.3,5.1,3.4,8.8,3.4c4.1,0,7.3-1.1,9.3-3.2c2.1-2.2,3.1-5.4,3.1-9.7v-2.1h-8.6v1.9c0,2.5-0.3,4-0.8,4.8
				c-0.5,0.7-1.5,1.1-2.9,1.1c-1.3,0-2.3-0.4-2.8-1.2c-0.5-0.9-0.8-2.4-0.8-4.6v-7.8h15.9v-10.6c0-3.9-1-7-3.1-9.1
				C327.2,219.1,324.2,218.1,320.4,218.1z M323.7,234.5h-7.4v-4.2c0-1.7,0.3-3,0.9-3.7c0.6-0.8,1.5-1.2,2.8-1.2c1.3,0,2.2,0.4,2.8,1.2
				c0.6,0.7,0.9,2,0.9,3.7V234.5L323.7,234.5z"/>
		</g>
	</g>
</svg>
