<svg id="social-skype" xmlns="http://www.w3.org/2000/svg" viewBox="0 0 295.2 295.2">
  <defs>
    <style>
      .cls-1 {
        fill: #e6dcdc;
      }

      .cls-2 {
        fill: #fff;
      }

      .cls-3 {
        fill: #d4c978;
      }
    </style>
  </defs>
  <title>social-skype-n</title>
  <g id="skype">
    <g id="circleback">
      <circle class="cls-1" cx="147.6" cy="147.6" r="147.6"/>
    </g>
    <g>
      <g>
        <path class="cls-2" d="M320,376.4c-75.2,0-136.4-61.2-136.4-136.4S244.8,103.6,320,103.6,456.4,164.8,456.4,240,395.2,376.4,320,376.4Z" transform="translate(-172.4 -92.4)"/>
        <path class="cls-3" d="M320,105.8A134.11,134.11,0,0,1,454.1,239.9c0,74-60,134.2-134.1,134.2a134.15,134.15,0,0,1,0-268.3m0-4.4c-76.4,0-138.6,62.2-138.6,138.6S243.6,378.6,320,378.6,458.6,316.4,458.6,240,396.4,101.4,320,101.4h0Z" transform="translate(-172.4 -92.4)"/>
      </g>
      <path class="cls-3" d="M352.8,323.5a43.63,43.63,0,0,1-21-5.3,80.09,80.09,0,0,1-14,1.3,76.61,76.61,0,0,1-76.6-76.6,71.23,71.23,0,0,1,1.6-15.4,44.4,44.4,0,0,1,61.9-60.1,80.78,80.78,0,0,1,13.1-1.1,76.61,76.61,0,0,1,76.6,76.6,74.26,74.26,0,0,1-1.8,16.4,43.6,43.6,0,0,1,4.6,19.7A44.45,44.45,0,0,1,352.8,323.5Z" transform="translate(-172.4 -92.4)"/>
      <path class="cls-2" d="M350.7,239.8a54.94,54.94,0,0,0-13.1-6,171.26,171.26,0,0,0-16.9-4.4c-4.9-1.1-8.5-2-10.6-2.6a36.09,36.09,0,0,1-6.2-2.4,14,14,0,0,1-4.6-3.5,6.79,6.79,0,0,1-1.5-4.5c0-2.8,1.6-5.2,4.8-7.3s7.8-3.3,13.3-3.3c5.9,0,10.2,1,12.8,3a26,26,0,0,1,6.9,8.5,23.43,23.43,0,0,0,4.6,6.1c1.5,1.4,3.8,2.1,6.6,2.1a11.11,11.11,0,0,0,11.1-10.7,18.16,18.16,0,0,0-2.4-8.7,28.78,28.78,0,0,0-7.5-8.4,39.68,39.68,0,0,0-12.7-6.3,59.21,59.21,0,0,0-17.9-2.4,64.37,64.37,0,0,0-22.5,3.6A33.73,33.73,0,0,0,280,202.9a24.57,24.57,0,0,0-5.2,15.5,24.13,24.13,0,0,0,5,15.4,33,33,0,0,0,13.2,9.6,110.71,110.71,0,0,0,20.1,6,134.18,134.18,0,0,1,14,3.5,21.55,21.55,0,0,1,8.2,4.5,9.58,9.58,0,0,1,3,7.3c0,3.8-1.9,6.9-5.7,9.6s-9.1,4-15.4,4c-4.6,0-8.4-.7-11.1-2a16.47,16.47,0,0,1-6.4-5,40.13,40.13,0,0,1-4.4-7.8,17.47,17.47,0,0,0-4.5-6.6,9.83,9.83,0,0,0-6.7-2.4,11.19,11.19,0,0,0-8,3,9.64,9.64,0,0,0-3.2,7.2,23.73,23.73,0,0,0,4.9,13.8,35.82,35.82,0,0,0,12.6,11.2c7.2,3.8,16.4,5.8,27.4,5.8,9.2,0,17.2-1.4,23.9-4.2a35.23,35.23,0,0,0,15.6-11.8,29,29,0,0,0,5.4-17.1,27,27,0,0,0-3.1-13.5A29.72,29.72,0,0,0,350.7,239.8Z" transform="translate(-172.4 -92.4)"/>
    </g>
  </g>
</svg>
