<svg id="social-twitter" xmlns="http://www.w3.org/2000/svg" viewBox="0 0 295.2 295.2">
  <defs>
    <style>
      .cls-1 {
        fill: #e6dcdc;
      }

      .cls-2 {
        fill: #fff;
      }

      .cls-3 {
        fill: #d4c978;
      }
    </style>
  </defs>
  <title>social-twitter-n</title>
  <g id="twitter">
    <g id="circleback">
      <circle class="cls-1" cx="147.6" cy="147.6" r="147.6"/>
    </g>
    <g>
      <path class="cls-2" d="M320,376.4c-75.2,0-136.4-61.2-136.4-136.4S244.8,103.6,320,103.6,456.4,164.8,456.4,240,395.2,376.4,320,376.4Z" transform="translate(-172.4 -92.4)"/>
      <path class="cls-3" d="M320,105.8A134.1,134.1,0,1,1,185.8,239.9,134.11,134.11,0,0,1,320,105.8m0-4.4c-76.4,0-138.6,62.2-138.6,138.6S243.6,378.6,320,378.6,458.6,316.4,458.6,240,396.4,101.4,320,101.4h0Z" transform="translate(-172.4 -92.4)"/>
    </g>
    <path class="cls-3" d="M385.5,206.4c0.1,1.5.1,2.9,0.1,4.4,0,44.7-34,96.2-96.2,96.2a95.38,95.38,0,0,1-51.8-15.2,70.46,70.46,0,0,0,8.1.5,67.84,67.84,0,0,0,42-14.5,33.82,33.82,0,0,1-31.6-23.5,33.87,33.87,0,0,0,6.4.6,32.42,32.42,0,0,0,8.9-1.2,33.78,33.78,0,0,1-27.1-33.1v-0.4a34.62,34.62,0,0,0,15.3,4.2,33.78,33.78,0,0,1-10.4-45.1,96.19,96.19,0,0,0,69.7,35.3,33.09,33.09,0,0,1-.9-7.7,33.82,33.82,0,0,1,58.5-23.1,67.49,67.49,0,0,0,21.5-8.2,33.81,33.81,0,0,1-14.9,18.7,66.34,66.34,0,0,0,19.4-5.3A72,72,0,0,1,385.5,206.4Z" transform="translate(-172.4 -92.4)"/>
  </g>
</svg>
