<svg id="social-pinterest" xmlns="http://www.w3.org/2000/svg" viewBox="0 0 295.2 295.2">
  <defs>
    <style>
      .cls-1 {
        fill: #e6dcdc;
      }

      .cls-2 {
        fill: #d4c978;
      }

      .cls-3 {
        fill: #fff;
      }
    </style>
  </defs>
  <title>social-pinterest-n</title>
  <g id="pinterest">
    <g id="circleback">
      <circle class="cls-1" cx="147.6" cy="147.6" r="147.6"/>
    </g>
    <circle class="cls-1" cx="147.6" cy="147.6" r="147.6"/>
    <circle class="cls-3" cx="147.6" cy="147.6" r="134.1"/>
    <g>
      <path class="cls-2" d="M320,376.4a137.22,137.22,0,0,1-38.7-5.6,2.29,2.29,0,0,1-1.3-3.4c6.5-10.2,10.9-19.7,13.2-28.1,1.6-6,9.4-36.8,9.4-36.8a2.24,2.24,0,0,1,1.9-1.7h0.3a2.4,2.4,0,0,1,2,1.2c4,7.6,16.6,15.5,30.8,15.5,41.3,0,70.1-36.9,70.1-89.7,0-36.7-30.9-74.6-82.7-74.6-38.9,0-93.6,25.3-93.6,81.6,0,24.1,9.8,42.5,26.1,49.2a3.93,3.93,0,0,0,1.4.3c1.1,0,1.9-.7,2.3-2.2l2.7-10.8c0.7-2.5.6-3-1.5-5.5-6.3-7.5-9.4-16.5-9.4-27.8,0-32.2,23.9-66.5,68.3-66.5,35.3,0,58,21.1,58,53.6,0,41.9-19.2,73.6-44.8,73.6a24.18,24.18,0,0,1-19.3-8.9,22.79,22.79,0,0,1-4.1-19.7c1.5-6.2,3.5-12.6,5.4-18.8,3.3-10.7,6.4-20.8,6.4-28.3,0-8.7-4.2-17.9-15.9-17.9-13.2,0-23.6,14.3-23.6,32.5a50.72,50.72,0,0,0,4,20.2,2.62,2.62,0,0,1,.2,1.5l-17.3,73.1c-2,8.4-2.8,18.6-2.3,30.2a2.06,2.06,0,0,1-1,1.9,2,2,0,0,1-1.3.4,2.92,2.92,0,0,1-.9-0.2,136.45,136.45,0,0,1-81.6-124.9c0-75.2,61.2-136.4,136.4-136.4S456,164.6,456,239.8C456.4,315.2,395.2,376.4,320,376.4Z" transform="translate(-172.4 -92.4)"/>
      <path class="cls-3" d="M320,105.8A134.1,134.1,0,1,1,320,374a132.26,132.26,0,0,1-38-5.5c5.1-8.1,10.7-18.4,13.5-28.7,1.6-6,9.4-36.9,9.4-36.9,4.7,8.9,18.3,16.7,32.8,16.7,43.1,0,72.4-39.3,72.4-91.9,0-39.8-33.7-76.8-84.9-76.8-63.7,0-95.9,45.7-95.9,83.8,0,23.1,8.7,43.6,27.5,51.2a6.83,6.83,0,0,0,2.3.5c2.1,0,3.8-1.3,4.4-3.8s2.1-8.3,2.7-10.8c0.9-3.4.6-4.5-1.9-7.5-5.4-6.4-8.8-14.6-8.8-26.3,0-33.9,25.4-64.2,66-64.2,36,0,55.8,22,55.8,51.4,0,38.7-17.1,71.3-42.5,71.3-14,0-24.5-11.6-21.2-25.8,4-17,11.9-35.3,11.9-47.6,0-11-5.9-20.1-18.1-20.1-14.4,0-25.9,14.8-25.9,34.7,0,12.7,4.3,21.2,4.3,21.2s-14.7,62.2-17.3,73.1c-2.4,10.2-2.7,21.4-2.3,30.8a134.13,134.13,0,0,1-80.3-122.9c-0.1-74,60-134.1,134.1-134.1m0-4.4c-76.4,0-138.6,62.2-138.6,138.6,0,76.67,63.6,138.9,138.5,138.9,76.4,0,138.6-62.2,138.6-138.6,0.1-76.8-62.1-138.9-138.5-138.9h0Z" transform="translate(-172.4 -92.4)"/>
    </g>
  </g>
</svg>
