<svg id="social-vimeo" xmlns="http://www.w3.org/2000/svg" viewBox="0 0 295.2 295.2">
  <defs>
    <style>
      .cls-1 {
        fill: #e6dcdc;
      }

      .cls-2 {
        fill: #b8a5a5;
      }

      .cls-3 {
        fill: #fff;
      }

      .cls-4 {
        fill: #d4c978; 
      }
    </style>
  </defs>
  <title>social-vimeo-n</title>
  <g id="vimeo">
    <g id="circleback">
      <circle class="cls-1" cx="147.6" cy="147.6" r="147.6"/>
    </g>
    <circle class="cls-2" cx="147.6" cy="147.6" r="143.1"/>
    <g>
      <path class="cls-2" d="M320,376.4c-75.2,0-136.4-61.2-136.4-136.4S244.8,103.6,320,103.6,456.4,164.8,456.4,240,395.2,376.4,320,376.4Z" transform="translate(-172.4 -92.4)"/>
      <path class="cls-3" d="M320,105.9A134.15,134.15,0,1,1,185.9,240.1,134.14,134.14,0,0,1,320,105.9m0-4.5c-76.4,0-138.6,62.2-138.6,138.6S243.6,378.6,320,378.6,458.6,316.4,458.6,240,396.4,101.4,320,101.4h0Z" transform="translate(-172.4 -92.4)"/>
    </g>
    <path class="cls-3" d="M314.7,312.2c-11.1,0-20.7-9.5-25.2-18.9-2.7-5.6-7.7-21.9-13-39.1s-11.9-38.9-14-41.4a2.11,2.11,0,0,0-1.9-.7c-4.1,0-10.7,4.5-12.9,6.3a2.39,2.39,0,0,1-1.4.5H246a2.37,2.37,0,0,1-1.5-.9l-6.5-8.5a2.26,2.26,0,0,1,.1-2.8c1.1-1.3,28-33.2,49.3-37.4a16.1,16.1,0,0,1,3.7-.4c16.3,0,19.9,22,23.2,41.4,0.9,5.6,1.8,11,3,15.5,2.5,9.9,7.6,30.5,10.9,30.5,2.3,0,9.5-7.4,20.4-27.7,3.7-7,4.4-14,1.8-18.5a8,8,0,0,0-7.2-3.9c-2.9,0-6.5,1.2-10.1,3.4a2.66,2.66,0,0,1-1.2.3,2.2,2.2,0,0,1-1.3-.4,2.17,2.17,0,0,1-.9-2.2c4.1-24.7,26.6-39.5,46-39.5,8.7,0,16.1,3.1,20.8,8.8,5.4,6.4,7.2,15.9,5.1,27.4-9.3,52.3-61.6,95.7-75.1,104.5A21.28,21.28,0,0,1,314.7,312.2Z" transform="translate(-172.4 -92.4)"/>
  </g>
</svg>
