<svg id="social-behance" xmlns="http://www.w3.org/2000/svg" viewBox="0 0 295.2 295.2">
  <defs>
    <style>
      .cls-1 {
        fill: #e6dcdc;
      }

      .cls-2 {
        fill: #fff;
      }

      .cls-3 {
        fill: #d4c978;
      }
    </style>
  </defs>
  <title>social-behance-n</title>
  <g id="behance">
    <g id="circleback">
      <circle class="cls-1" cx="147.6" cy="147.6" r="147.6"/>
    </g>
    <g>
      <path class="cls-2" d="M320,376.4c-75.2,0-136.4-61.2-136.4-136.4S244.8,103.6,320,103.6,456.4,164.8,456.4,240,395.2,376.4,320,376.4Z" transform="translate(-172.4 -92.4)"/>
      <path class="cls-3" d="M320,105.8A134.1,134.1,0,1,1,185.9,240,134.05,134.05,0,0,1,320,105.8m0-4.4c-76.4,0-138.6,62.2-138.6,138.6S243.6,378.6,320,378.6,458.6,316.4,458.6,240,396.4,101.4,320,101.4h0Z" transform="translate(-172.4 -92.4)"/>
    </g>
    <g>
      <path class="cls-3" d="M316.71,197.7a27.19,27.19,0,0,1,4.12,15.13c0,6-1.39,10.89-4.16,14.54a21.8,21.8,0,0,1-6.86,5.63,20.35,20.35,0,0,1,10.38,8.71,27.85,27.85,0,0,1,3.51,14.42,30.67,30.67,0,0,1-4,15.71,26.24,26.24,0,0,1-6.37,7.73c-2.86,2.41-6.26,3.64-10.16,4.52a58.09,58.09,0,0,1-12.71.92H250V187h43.39C304.34,187,312.12,190.88,316.71,197.7ZM275,204v25h14.73c3.89,0,7.07-2.2,9.51-3.83s3.64-5.2,3.64-9.34c0-4.58-1.59-8.22-4.84-9.68A30.07,30.07,0,0,0,287.42,204H275Zm0,42v24h14.69a19,19,0,0,0,9.12-2.36c3.93-2.15,5.92-6.54,5.92-12.6,0-5.12-1.93-7.06-5.74-9-2.13-1.07-5.14-.08-9-0.08H275Z" transform="translate(-172.4 -92.4)"/>
      <path class="cls-3" d="M381.3,215.28A26.33,26.33,0,0,1,392,225.58a35.2,35.2,0,0,1,4.93,14c0.42,3.19.61,13.43,0.54,13.43H352.34c0.25,8,2.4,12.26,6.47,15.06a15.12,15.12,0,0,0,8.94,2.81c3.69,0,6.69-2,9-4.14,1.26-1.14,2.38.28,3.34-5.72h16.54c-0.43,6-2.42,9.36-6,13.62-5.54,6.75-13.33,10.68-23.31,10.68a31.35,31.35,0,0,1-21.85-8.3c-6.3-5.72-9.46-14.86-9.46-27.73,0-12.06,2.84-21.24,8.54-27.66s13.1-9.61,22.18-9.61A32.07,32.07,0,0,1,381.3,215.28ZM357,233.12c-2.3,2.64-3.73,2.88-4.32,12.88h27.92c-0.29-10-1.74-10.6-4.32-13.1a13.21,13.21,0,0,0-9.61-3.76C362.55,229.14,359.33,230.48,357,233.12Z" transform="translate(-172.4 -92.4)"/>
      <rect class="cls-3" x="175.6" y="94.6" width="33" height="17"/>
    </g>
  </g>
</svg>
