<?xml version="1.0" encoding="utf-8"?>
<!-- Generator: Adobe Illustrator 18.1.1, SVG Export Plug-In . SVG Version: 6.00 Build 0)  -->
<!DOCTYPE svg PUBLIC "-//W3C//DTD SVG 1.1//EN" "http://www.w3.org/Graphics/SVG/1.1/DTD/svg11.dtd">
<svg version="1.1" id="social-pinterest" xmlns="http://www.w3.org/2000/svg" xmlns:xlink="http://www.w3.org/1999/xlink" x="0px" y="0px"
	 viewBox="0 0 640 480" enable-background="new 0 0 640 480" xml:space="preserve">
	<g id="pinterest">
		<g id="circleback">
			<circle fill="#E6DCDC" cx="320" cy="240" r="147.6"/>
		</g>
		<g>
			<circle fill="#E6DCDC" cx="320" cy="240" r="147.6"/>
		</g>
		<circle fill="#D4C978" cx="320" cy="240" r="134.1"/>
		<g>
			<path fill="#FFFFFF" d="M320,376.4c-13.1,0-26.1-1.9-38.7-5.6c-0.7-0.2-1.2-0.7-1.5-1.4c-0.2-0.7-0.2-1.4,0.2-2
				c6.5-10.2,10.9-19.7,13.2-28.1c1.6-6,9.4-36.8,9.4-36.8c0.2-0.9,1-1.6,1.9-1.7c0.1,0,0.2,0,0.3,0c0.8,0,1.6,0.5,2,1.2
				c4,7.6,16.6,15.5,30.8,15.5c41.3,0,70.1-36.9,70.1-89.7c0-36.7-30.9-74.6-82.7-74.6c-38.9,0-93.6,25.3-93.6,81.6
				c0,24.1,9.8,42.5,26.1,49.2c0.5,0.2,1,0.3,1.4,0.3c1.1,0,1.9-0.7,2.3-2.2l2.7-10.8c0.7-2.5,0.6-3-1.5-5.5
				c-6.3-7.5-9.4-16.5-9.4-27.8c0-32.2,23.9-66.5,68.3-66.5c35.3,0,58,21.1,58,53.6c0,41.9-19.2,73.6-44.8,73.6
				c-7.8,0-14.8-3.2-19.3-8.9c-4.3-5.5-5.8-12.4-4.1-19.7c1.5-6.2,3.5-12.6,5.4-18.8c3.3-10.7,6.4-20.8,6.4-28.3
				c0-8.7-4.2-17.9-15.9-17.9c-13.2,0-23.6,14.3-23.6,32.5c0,12,4,20.1,4,20.2c0.2,0.5,0.3,1,0.2,1.5l-17.3,73.1
				c-2,8.4-2.8,18.6-2.3,30.2c0,0.8-0.3,1.5-1,1.9c-0.4,0.3-0.8,0.4-1.3,0.4c-0.3,0-0.6-0.1-0.9-0.2c-49.6-21.8-81.6-70.8-81.6-124.9
				c0-75.2,61.2-136.4,136.4-136.4c75.2,0,136.4,61.2,136.4,136.4C456.4,315.2,395.2,376.4,320,376.4z"/>
			<path fill="#D4C978" d="M320,105.8c74.1,0,134.1,60,134.1,134.1c0,74.1-60.1,134.1-134.1,134.1c-13.2,0-26-1.9-38-5.5
				c5.1-8.1,10.7-18.4,13.5-28.7c1.6-6,9.4-36.9,9.4-36.9c4.7,8.9,18.3,16.7,32.8,16.7c43.1,0,72.4-39.3,72.4-91.9
				c0-39.8-33.7-76.8-84.9-76.8c-63.7,0-95.9,45.7-95.9,83.8c0,23.1,8.7,43.6,27.5,51.2c0.8,0.3,1.6,0.5,2.3,0.5
				c2.1,0,3.8-1.3,4.4-3.8c0.6-2.4,2.1-8.3,2.7-10.8c0.9-3.4,0.6-4.5-1.9-7.5c-5.4-6.4-8.8-14.6-8.8-26.3c0-33.9,25.4-64.2,66-64.2
				c36,0,55.8,22,55.8,51.4c0,38.7-17.1,71.3-42.5,71.3c-14,0-24.5-11.6-21.2-25.8c4-17,11.9-35.3,11.9-47.6c0-11-5.9-20.1-18.1-20.1
				c-14.4,0-25.9,14.8-25.9,34.7c0,12.7,4.3,21.2,4.3,21.2s-14.7,62.2-17.3,73.1c-2.4,10.2-2.7,21.4-2.3,30.8
				c-47.3-20.8-80.3-67.9-80.3-122.9C185.8,165.9,245.9,105.8,320,105.8 M320,101.4c-76.4,0-138.6,62.2-138.6,138.6
				c0,55,32.6,104.8,83,127c0.6,0.3,1.2,0.4,1.8,0.4c0.9,0,1.8-0.3,2.5-0.8c1.3-0.9,2-2.3,2-3.9c-0.5-11.4,0.3-21.4,2.2-29.6
				l17.3-73.1c0.2-1,0.1-2.1-0.4-3c0-0.1-3.8-7.9-3.8-19.2c0-17,9.4-30.3,21.4-30.3c12.6,0,13.6,12,13.6,15.7c0,7.2-3.1,17.1-6.3,27.6
				c-1.9,6.2-3.9,12.6-5.4,18.9c-1.9,7.9-0.3,15.5,4.5,21.6c4.9,6.2,12.6,9.8,21,9.8c26.8,0,47-32.6,47-75.8c0-34-23.7-55.9-60.3-55.9
				c-40.2,0-70.5,29.5-70.5,68.7c0,11.8,3.2,21.3,9.9,29.2c1.1,1.3,1.3,1.7,1.3,1.8c0,0,0,0.4-0.3,1.6c-0.4,1.3-0.9,3.6-1.5,5.7
				l-1.3,5.1c-0.1,0.3-0.2,0.5-0.2,0.6c0-0.1-0.2-0.1-0.5-0.2c-15.7-6.4-24.7-23.6-24.7-47.1c0-54.7,53.5-79.3,91.4-79.3
				c50.4,0,80.4,36.8,80.4,72.4c0,51.5-27.9,87.5-67.9,87.5c-13.3,0-25.1-7.3-28.8-14.3c-0.8-1.5-2.3-2.4-4-2.4c-0.2,0-0.4,0-0.5,0
				c-1.8,0.2-3.4,1.6-3.8,3.4c-0.1,0.3-7.8,30.9-9.4,36.8c-2.3,8.2-6.6,17.5-13,27.6c-0.8,1.2-0.9,2.7-0.4,4s1.6,2.3,2.9,2.7
				c12.8,3.8,26,5.7,39.3,5.7c76.4,0,138.6-62.2,138.6-138.6C458.6,163.5,396.4,101.4,320,101.4L320,101.4z"/>
		</g>
	</g>
</svg>
