<?xml version="1.0" encoding="utf-8"?>
<!-- Generator: Adobe Illustrator 18.1.1, SVG Export Plug-In . SVG Version: 6.00 Build 0)  -->
<!DOCTYPE svg PUBLIC "-//W3C//DTD SVG 1.1//EN" "http://www.w3.org/Graphics/SVG/1.1/DTD/svg11.dtd">
<svg version="1.1" id="social-linkedin" xmlns="http://www.w3.org/2000/svg" xmlns:xlink="http://www.w3.org/1999/xlink" x="0px" y="0px"
	 viewBox="0 0 640 480" enable-background="new 0 0 640 480" xml:space="preserve">
	 <g id="linkedin">
		<g id="circleback">
			<circle fill="#E6DCDC" cx="320" cy="240" r="147.6"/>
		</g>
		<g>
			<path fill="#FFFFFF" d="M320,376.4c-75.2,0-136.4-61.2-136.4-136.4S244.8,103.6,320,103.6S456.4,164.8,456.4,240
				S395.2,376.4,320,376.4z"/>
			<path fill="#D4C978" d="M320,105.9c74.1,0,134.1,60.1,134.1,134.1c0,74.1-60.1,134.1-134.1,134.1s-134.1-60-134.1-134.1
				C185.8,165.9,245.9,105.9,320,105.9 M320,101.4c-76.4,0-138.6,62.2-138.6,138.6S243.6,378.6,320,378.6S458.6,316.4,458.6,240
				S396.4,101.4,320,101.4L320,101.4z"/>
		</g>
		<g>
			<path fill="#D4C978" d="M394.8,304.5c0,6-5,10.8-11.1,10.8H256.2c-6.1,0-11.1-4.8-11.1-10.8V175.5c0-6,4.9-10.8,11.1-10.8h127.6
				c6.1,0,11.1,4.8,11.1,10.8V304.5z"/>
		</g>
		<g>
			<path fill="#FFFFFF" d="M328.5,205.2c-12,0-17.4,6.6-20.4,11.2v0.2H308c0-0.1,0.1-0.2,0.1-0.2v-9.6h-22.6c0.3,6.4,0,68,0,68h22.6
				v-38c0-2,0.1-4,0.7-5.5c1.6-4,5.4-8.3,11.6-8.3c8.2,0,11.5,6.2,11.5,15.4v36.4h22.6v-39C354.5,214.9,343.4,205.2,328.5,205.2z"/>
		</g>
		<g>
			<path fill="#FFFFFF" d="M320.1,228.2c-7.7,0-12.8,5.1-12.8,11.8c0,6.5,4.9,11.8,12.5,11.8h0.1c7.9,0,12.8-5.2,12.8-11.8
				C332.6,233.3,327.8,228.2,320.1,228.2z"/>
		</g>
		<g>
			<rect x="308.7" y="206" fill="#FFFFFF" width="22.6" height="68"/>
		</g>
	</g>
</svg>
