<svg id="social-youtube" xmlns="http://www.w3.org/2000/svg" viewBox="0 0 295.2 295.2">
  <defs>
    <style>
      .cls-1 {
        fill: #e6dcdc;
      }

      .cls-2 {
        fill: #b8a5a5;
      }

      .cls-3 {
        fill: #fff;
      }

      .cls-4 {
        fill: #d4c978;
      }
    </style>
  </defs>
  <title>social-youtube-n</title>
  <g id="youtube">
    <g id="circleback">
      <circle class="cls-1" cx="147.6" cy="147.6" r="147.6"/>
    </g>
    <circle class="cls-2" cx="147.6" cy="147.6" r="143.1"/>
    <g>
      <path class="cls-3" d="M320,376.4c-75.2,0-136.4-61.2-136.4-136.4S244.8,103.6,320,103.6,456.4,164.8,456.4,240,395.2,376.4,320,376.4Z" transform="translate(-172.4 -92.4)"/>
      <path class="cls-4" d="M320,105.9A134.1,134.1,0,1,1,185.9,240,134.11,134.11,0,0,1,320,105.9m0-4.5c-76.4,0-138.6,62.2-138.6,138.6S243.6,378.6,320,378.6,458.6,316.4,458.6,240,396.4,101.4,320,101.4h0Z" transform="translate(-172.4 -92.4)"/>
    </g>
    <g>
      <polygon class="cls-4" points="93.63 86.35 104.83 86.35 112.04 111.32 112.74 111.32 119.62 86.35 130.92 86.35 117.97 122.91 117.97 148.83 106.86 148.83 106.86 124.08 93.63 86.35"/>
      <g>
        <path class="cls-4" d="M304.13,205.68a10.29,10.29,0,0,1,4-8.53c2.66-2.11,6.24-3.18,10.72-3.18a14.92,14.92,0,0,1,10.06,3.36,10.83,10.83,0,0,1,3.9,8.62v23.81q0,5.91-3.83,9.27c-2.57,2.24-6.09,3.38-10.59,3.38-4.31,0-7.77-1.17-10.36-3.48a12,12,0,0,1-3.89-9.35v-23.9Zm10.16,24.76a4,4,0,0,0,1.05,2.94,4.13,4.13,0,0,0,3,1,4.58,4.58,0,0,0,3.18-1.05,3.73,3.73,0,0,0,1.19-2.92V205.32a3,3,0,0,0-1.2-2.44,5,5,0,0,0-3.16-.93,4.47,4.47,0,0,0-2.95.93,3,3,0,0,0-1.13,2.44v25.11Z" transform="translate(-172.4 -92.4)"/>
        <path class="cls-4" d="M369,195.13v46.09h-9.88v-5.09a20.61,20.61,0,0,1-5.69,4.29,12.78,12.78,0,0,1-5.71,1.47,6.38,6.38,0,0,1-5.18-2.06c-1.15-1.38-1.73-3.43-1.73-6.18V195.13h9.86v35.34a3.63,3.63,0,0,0,.64,2.37,2.47,2.47,0,0,0,2,.74,5.91,5.91,0,0,0,2.76-1,12.85,12.85,0,0,0,3-2.49v-35H369Z" transform="translate(-172.4 -92.4)"/>
        <polygon class="cls-4" points="117.7 150 87.35 150 87.35 158.23 97.58 158.23 97.58 206.71 107.47 206.71 107.47 158.23 117.7 158.23 117.7 150"/>
        <path class="cls-4" d="M310.24,289a11.89,11.89,0,0,1-2.72,2.24,5.09,5.09,0,0,1-2.45.89,2.2,2.2,0,0,1-1.79-.67,3.41,3.41,0,0,1-.54-2.15V257.26h-8.78v35a8.71,8.71,0,0,0,1.54,5.61,5.59,5.59,0,0,0,4.59,1.87,11.06,11.06,0,0,0,5.09-1.34,18.58,18.58,0,0,0,5.07-3.88v4.61H319V257.26h-8.77V289Z" transform="translate(-172.4 -92.4)"/>
        <path class="cls-4" d="M348.63,259.42a7.79,7.79,0,0,0-6.37-2.66,9,9,0,0,0-4,1,13.45,13.45,0,0,0-3.76,2.9V242.4H325.6v56.71h8.87V295.9a11.2,11.2,0,0,0,3.75,2.83,10.82,10.82,0,0,0,4.59.91,7.48,7.48,0,0,0,6-2.36c1.36-1.58,2.06-3.86,2.06-6.82V267.24c0-3.43-.74-6-2.2-7.81m-6.84,29.9a4.43,4.43,0,0,1-.75,2.87,3,3,0,0,1-2.37.89,5.07,5.07,0,0,1-2.11-.45,7.09,7.09,0,0,1-2.09-1.48V265.08a6.24,6.24,0,0,1,1.81-1.28,4.32,4.32,0,0,1,1.86-.41,3.41,3.41,0,0,1,2.73,1.09,4.82,4.82,0,0,1,.92,3.22v21.61Z" transform="translate(-172.4 -92.4)"/>
        <path class="cls-4" d="M381.25,279.18V268.51q0-5.95-3.22-9.12c-2.16-2.12-5.25-3.18-9.27-3.18a13.6,13.6,0,0,0-9.6,3.42,11.55,11.55,0,0,0-3.74,8.87v18.8c0,4,1.15,7.19,3.4,9.5s5.35,3.44,9.28,3.44q6.58,0,9.85-3.23t3.3-9.71v-2.15h-9v1.91c0,2.46-.29,4-0.86,4.76a3.71,3.71,0,0,1-3.06,1.09,3.35,3.35,0,0,1-3-1.27c-0.58-.86-0.86-2.38-0.86-4.58v-7.89h16.78Zm-16.78-10.73a5.94,5.94,0,0,1,.91-3.75,3.59,3.59,0,0,1,3-1.14,3.47,3.47,0,0,1,2.91,1.14,6,6,0,0,1,.92,3.75v4.23h-7.75v-4.23Z" transform="translate(-172.4 -92.4)"/>
      </g>
    </g>
  </g>
</svg>
