<?xml version="1.0" encoding="utf-8"?>
<!-- Generator: Adobe Illustrator 18.1.1, SVG Export Plug-In . SVG Version: 6.00 Build 0)  -->
<!DOCTYPE svg PUBLIC "-//W3C//DTD SVG 1.1//EN" "http://www.w3.org/Graphics/SVG/1.1/DTD/svg11.dtd">
<svg version="1.1" id="social-skype" xmlns="http://www.w3.org/2000/svg" xmlns:xlink="http://www.w3.org/1999/xlink" x="0px" y="0px"
	 viewBox="0 0 640 480" enable-background="new 0 0 640 480" xml:space="preserve">
	<g id="skype">
		<g id="circleback">
			<circle fill="#E6DCDC" cx="320" cy="240" r="147.6"/>
		</g>
		<g>
			<g>
				<path fill="#FFFFFF" d="M320,376.4c-75.2,0-136.4-61.2-136.4-136.4c0-75.2,61.2-136.4,136.4-136.4S456.4,164.8,456.4,240
					C456.4,315.2,395.2,376.4,320,376.4z"/>
				<path fill="#D4C978" d="M320,105.8c74.1,0,134.1,60.1,134.1,134.1S394.1,374.1,320,374.1s-134.1-60-134.1-134.1
					C185.9,165.9,245.9,105.8,320,105.8 M320,101.4c-76.4,0-138.6,62.2-138.6,138.6c0,76.4,62.2,138.6,138.6,138.6
					S458.6,316.4,458.6,240C458.6,163.6,396.4,101.4,320,101.4L320,101.4z"/>
			</g>
			<g>
				<path fill="#D4C978" d="M352.8,323.5c-7.6,0-14.8-1.9-21-5.3c-4.5,0.8-9.2,1.3-14,1.3c-42.3,0-76.6-34.3-76.6-76.6
					c0-5.3,0.5-10.4,1.6-15.4c-3.9-6.6-6.1-14.3-6.1-22.5c0-24.5,19.9-44.4,44.4-44.4c8.7,0,16.8,2.5,23.6,6.8
					c4.3-0.7,8.6-1.1,13.1-1.1c42.3,0,76.6,34.3,76.6,76.6c0,5.6-0.6,11.1-1.8,16.4c3,6,4.6,12.6,4.6,19.7
					C397.2,303.6,377.3,323.5,352.8,323.5z"/>
			</g>
			<g>
				<path fill="#FFFFFF" d="M350.7,239.8c-3.6-2.3-8-4.4-13.1-6c-5-1.6-10.7-3.1-16.9-4.4c-4.9-1.1-8.5-2-10.6-2.6
					c-2.1-0.6-4.2-1.4-6.2-2.4c-1.9-1-3.5-2.1-4.6-3.5c-1-1.2-1.5-2.7-1.5-4.5c0-2.8,1.6-5.2,4.8-7.3c3.3-2.2,7.8-3.3,13.3-3.3
					c5.9,0,10.2,1,12.8,3c2.6,2,5,4.9,6.9,8.5c1.6,2.8,3.1,4.8,4.6,6.1c1.5,1.4,3.8,2.1,6.6,2.1c3.1,0,5.8-1.1,7.9-3.3
					c2.1-2.2,3.2-4.7,3.2-7.4c0-2.8-0.8-5.8-2.4-8.7c-1.6-2.9-4.1-5.7-7.5-8.4c-3.3-2.6-7.6-4.7-12.7-6.3c-5-1.6-11-2.4-17.9-2.4
					c-8.5,0-16.1,1.2-22.5,3.6c-6.4,2.4-11.4,5.9-14.9,10.3c-3.5,4.5-5.2,9.7-5.2,15.5c0,6.1,1.7,11.2,5,15.4c3.2,4,7.7,7.3,13.2,9.6
					c5.4,2.3,12.1,4.3,20.1,6c5.9,1.2,10.6,2.4,14,3.5c3.3,1,6.1,2.6,8.2,4.5c2,1.9,3,4.3,3,7.3c0,3.8-1.9,6.9-5.7,9.6
					c-3.9,2.7-9.1,4-15.4,4c-4.6,0-8.4-0.7-11.1-2c-2.8-1.3-4.9-3-6.4-5c-1.6-2.1-3-4.7-4.4-7.8c-1.2-2.8-2.7-5.1-4.5-6.6
					c-1.8-1.6-4.1-2.4-6.7-2.4c-3.2,0-5.9,1-8,3c-2.1,2-3.2,4.4-3.2,7.2c0,4.5,1.6,9.2,4.9,13.8c3.2,4.7,7.5,8.4,12.6,11.2
					c7.2,3.8,16.4,5.8,27.4,5.8c9.2,0,17.2-1.4,23.9-4.2c6.8-2.8,12-6.8,15.6-11.8c3.6-5.1,5.4-10.8,5.4-17.1c0-5.3-1-9.8-3.1-13.5
					C357.2,245.2,354.4,242.2,350.7,239.8z"/>
			</g>
		</g>
	</g>
</svg>
